M48
;Layer_Color=9474304
;FILE_FORMAT=4:4
METRIC,LZ
;TYPE=PLATED
T01F00S00C0.3048
T04F00S00C0.9000
T05F00S00C1.2000
T06F00S00C3.1750
%
T01
X0054229Y0000635
X0055499
X0056769
X0058039
X0059309
X0060579
X0061849
X0063119
X0064389
X0065659
X0066929
X0068199
X0069469
X0070739
X0072009
X0073279
X0052959
X0051689
X0050419
X0049149
X0047879
X0046609
X0045339
X0044069
X0042799
X0041529
X0040259
X0038989
X0037719
X0036449
X0035179
X0033909
X0032639
X0031369
X0030099
X0028829
X0027559
X0026289
X0025019
X0023749
X0022479
X0021209
X0019939
X0018669
X0017399
X0016129
X0014859
X0013589
X0012319
X0011049
X0009779
X0008509
X0007239
X0005969
X00081831Y00084264
X0008255Y001397
X0000762Y0013589
Y0012319
Y0011049
Y0009779
Y0008509
Y0007239
Y0005969
Y0014859
Y0016129
Y0017399
Y0018669
Y0019939
Y0021209
Y0022479
Y0023749
Y0025019
Y0026289
Y0027559
Y0028829
Y0030099
Y0031369
Y0032639
Y0033909
Y0035179
Y0036449
Y0037719
Y0038989
Y0040259
Y0041529
Y0042799
X0002413Y0029972
X0010795Y0020877
X001397Y0020623
X0018415Y0022733
Y002413
Y0025654
Y0027051
X0019939
X0021463
Y0025654
Y002413
Y0022733
X0019939
Y002413
Y0025527
X0027051Y00252307
X00286597
X00302683
X0031877
Y0023114
X00302683
X00286597
X0027051
Y00273473
X00286597
X00302683
X0031877
Y0029464
X00302683
X00286597
X0027051
X0038354Y0026289
X004318
X0045847Y0022479
X0048387Y0024257
X0045974Y003302
X0041021Y0013716
X003683Y0013208
X0035687
Y0012065
X003683
Y0014351
X0035687
X0032004Y0013843
X003048Y0015875
X003175Y0008001
X0057531Y0012446
X0071755Y0016256
X0079375
Y0014986
Y0013716
Y0012446
Y0011176
Y0009906
Y0008636
Y0007366
Y0006096
Y0017526
Y0018796
Y0020066
Y0021336
Y0022606
Y0023876
Y0025146
Y0026416
Y0027686
Y0028956
Y0030226
Y0031496
Y0032766
Y0034036
Y0035306
Y0036576
Y0037846
Y0039116
Y0040386
Y0041656
Y0042926
X0071628Y0034671
X006858Y0037211
X0066167Y0035179
X0071755Y0027686
X0071247Y0049403
X0069977
X0068707
X0067437
X0066167
X0064897
X0063627
X0062357
X0061087
X0059817
X0058547
X0057277
X0056007
X0054737
X0058293Y0047371
X0060833Y004572
X0066548Y0046609
X0072517Y0049403
X0073787
X0079375Y0044196
X0053467Y0049403
X0052197
X0050927
X0049657
X0048387
X0047117
X0045847
X0044577
X0043307
X0042037
X0040767
X0039497
X0038227
X0036957
X0035687
X0034417
X0033147
X0031877
X0030607
X0029337
X0028067
X0026797
X0025527
X0024257
X0022987
X0021717
X0020447
X0019177
X0017907
X0016637
X0015367
X0014097
X0012827
X0011557
X0010287
X0009017
X0007747
X0006477
X0000762Y0044069
T04
X0025019Y0008057
Y0011557
X0037211Y0036322
X0039751
X0042291
X0074549Y0037338
Y0034798
X0077089
Y0037338
Y0039878
X0074549
Y0042418
X0077089
Y0030861
Y0028321
Y0025781
Y0023241
X0074549
Y0025781
Y0028321
Y0030861
Y0019558
Y0017018
Y0014478
Y0011938
X0077089
Y0014478
Y0017018
Y0019558
X0055626Y0008481
Y0004981
T05
X0002539Y0025527
X0007239
X0011939
T06
X0077089Y0002921
X0002921
X0077089Y0047117
X0002921
M30
