G04*
G04 #@! TF.GenerationSoftware,Altium Limited,Altium Designer,24.0.1 (36)*
G04*
G04 Layer_Color=8388736*
%FSLAX26Y26*%
%MOIN*%
G70*
G04*
G04 #@! TF.SameCoordinates,AB7DD749-DD38-46E5-A677-7F6656662C7D*
G04*
G04*
G04 #@! TF.FilePolarity,Negative*
G04*
G01*
G75*
%ADD18R,0.145795X0.126110*%
G04:AMPARAMS|DCode=19|XSize=63mil|YSize=58mil|CornerRadius=0mil|HoleSize=0mil|Usage=FLASHONLY|Rotation=0.000|XOffset=0mil|YOffset=0mil|HoleType=Round|Shape=Octagon|*
%AMOCTAGOND19*
4,1,8,0.031500,-0.014500,0.031500,0.014500,0.017000,0.029000,-0.017000,0.029000,-0.031500,0.014500,-0.031500,-0.014500,-0.017000,-0.029000,0.017000,-0.029000,0.031500,-0.014500,0.0*
%
%ADD19OCTAGOND19*%

%ADD20R,0.063000X0.058000*%
%ADD21R,0.058000X0.043000*%
%ADD22R,0.063118X0.055244*%
%ADD23R,0.058000X0.063000*%
G04:AMPARAMS|DCode=24|XSize=63mil|YSize=58mil|CornerRadius=0mil|HoleSize=0mil|Usage=FLASHONLY|Rotation=270.000|XOffset=0mil|YOffset=0mil|HoleType=Round|Shape=Octagon|*
%AMOCTAGOND24*
4,1,8,-0.014500,-0.031500,0.014500,-0.031500,0.029000,-0.017000,0.029000,0.017000,0.014500,0.031500,-0.014500,0.031500,-0.029000,0.017000,-0.029000,-0.017000,-0.014500,-0.031500,0.0*
%
%ADD24OCTAGOND24*%

%ADD25R,0.076898X0.094614*%
%ADD26R,0.098551X0.098551*%
%ADD27R,0.073000X0.058000*%
%ADD28R,0.058000X0.068000*%
G04:AMPARAMS|DCode=29|XSize=68mil|YSize=58mil|CornerRadius=0mil|HoleSize=0mil|Usage=FLASHONLY|Rotation=270.000|XOffset=0mil|YOffset=0mil|HoleType=Round|Shape=Octagon|*
%AMOCTAGOND29*
4,1,8,-0.014500,-0.034000,0.014500,-0.034000,0.029000,-0.019500,0.029000,0.019500,0.014500,0.034000,-0.014500,0.034000,-0.029000,0.019500,-0.029000,-0.019500,-0.014500,-0.034000,0.0*
%
%ADD29OCTAGOND29*%

%ADD30R,0.045402X0.094614*%
%ADD31R,0.224535X0.271779*%
%ADD32O,0.078866X0.032000*%
%ADD33R,0.103000X0.128000*%
%ADD34R,0.334772X0.419417*%
%ADD35R,0.133984X0.049339*%
%ADD36R,0.029654X0.065087*%
%ADD37R,0.029654X0.065087*%
%ADD38R,0.067000X0.039500*%
%ADD39R,0.067000X0.037900*%
%ADD40R,0.067000X0.035600*%
%ADD41R,0.043000X0.058000*%
%ADD42R,0.094614X0.076898*%
%ADD43C,0.208000*%
%ADD44R,0.078866X0.078866*%
%ADD45C,0.078866*%
%ADD46C,0.070992*%
%ADD47R,0.070992X0.070992*%
%ADD48R,0.165480X0.086740*%
%ADD49R,0.086740X0.165480*%
%ADD50C,0.086740*%
%ADD51O,0.078822X0.051307*%
%ADD52R,0.074929X0.074929*%
%ADD53C,0.074929*%
%ADD54C,0.032000*%
D18*
X1835000Y370000D02*
D03*
Y120000D02*
D03*
X2385000Y1520000D02*
D03*
Y1270000D02*
D03*
D19*
X402500Y1245000D02*
D03*
D20*
X267500D02*
D03*
D21*
X2394997Y1667602D02*
D03*
Y1742405D02*
D03*
X2640003Y1667398D02*
D03*
Y1592595D02*
D03*
X2604997Y1257602D02*
D03*
Y1332405D02*
D03*
X2494997Y1742405D02*
D03*
Y1667602D02*
D03*
X1624997Y447405D02*
D03*
Y372602D02*
D03*
X1200000Y569803D02*
D03*
Y495000D02*
D03*
X1999997Y1097602D02*
D03*
Y1172405D02*
D03*
X2100000Y1080000D02*
D03*
Y1005197D02*
D03*
X1809997Y1247405D02*
D03*
Y1172602D02*
D03*
X1905003Y1012595D02*
D03*
Y1087398D02*
D03*
X1959997Y822405D02*
D03*
Y747602D02*
D03*
D22*
X550000Y615000D02*
D03*
Y748858D02*
D03*
X2700000Y1406929D02*
D03*
Y1273071D02*
D03*
X2295000Y1673071D02*
D03*
Y1806929D02*
D03*
X1800000Y948071D02*
D03*
Y1081929D02*
D03*
X2085000Y753071D02*
D03*
Y886929D02*
D03*
D23*
X425000Y754429D02*
D03*
D24*
Y619429D02*
D03*
D25*
X560000Y507480D02*
D03*
Y326378D02*
D03*
D26*
X2160000Y1610000D02*
D03*
Y1787165D02*
D03*
D27*
X420000Y509429D02*
D03*
Y374429D02*
D03*
D28*
X2820000Y1540000D02*
D03*
X2825000Y910000D02*
D03*
Y460000D02*
D03*
D29*
X2820000Y1440000D02*
D03*
X2825000Y1010000D02*
D03*
Y560000D02*
D03*
D30*
X874764Y1237874D02*
D03*
X695236D02*
D03*
D31*
X785000Y980000D02*
D03*
D32*
X1534921Y446693D02*
D03*
Y496693D02*
D03*
Y546693D02*
D03*
Y596693D02*
D03*
X1326260Y446693D02*
D03*
Y496693D02*
D03*
Y546693D02*
D03*
Y596693D02*
D03*
D33*
X1430591Y521693D02*
D03*
D34*
X1159173Y1035000D02*
D03*
D35*
X1605000Y1169716D02*
D03*
Y1102787D02*
D03*
Y1035858D02*
D03*
Y968929D02*
D03*
Y902000D02*
D03*
D36*
X2192401Y1407677D02*
D03*
X2154999D02*
D03*
X2117599D02*
D03*
Y1492323D02*
D03*
X2154999D02*
D03*
D37*
X2192402Y1492323D02*
D03*
D38*
X267760Y331755D02*
D03*
Y548255D02*
D03*
D39*
Y380155D02*
D03*
Y499855D02*
D03*
D40*
Y420305D02*
D03*
Y459705D02*
D03*
D41*
X2562405Y1835003D02*
D03*
X2487602D02*
D03*
X1672398Y539997D02*
D03*
X1747202D02*
D03*
X1840000Y540000D02*
D03*
X1914803D02*
D03*
X2137602Y590003D02*
D03*
X2212405D02*
D03*
X502602Y1245003D02*
D03*
X577405D02*
D03*
X97595Y1239997D02*
D03*
X172398D02*
D03*
X2212405Y490003D02*
D03*
X2137602D02*
D03*
D42*
X1505551Y315000D02*
D03*
X1324449D02*
D03*
D43*
X3035000Y115000D02*
D03*
Y1855000D02*
D03*
X115000Y115000D02*
D03*
Y1855000D02*
D03*
D44*
X2190000Y333898D02*
D03*
X985000Y455000D02*
D03*
D45*
X2190000Y196102D02*
D03*
X985000Y317205D02*
D03*
D46*
X2935000Y1370000D02*
D03*
X3035000D02*
D03*
Y1470000D02*
D03*
X2935000D02*
D03*
X3035000Y1570000D02*
D03*
X2935000D02*
D03*
X3035000Y1670000D02*
D03*
X2935000Y915000D02*
D03*
X3035000D02*
D03*
Y1015000D02*
D03*
X2935000D02*
D03*
X3035000Y1115000D02*
D03*
X2935000D02*
D03*
X3035000Y1215000D02*
D03*
X2935000Y470000D02*
D03*
X3035000D02*
D03*
Y570000D02*
D03*
X2935000D02*
D03*
X3035000Y670000D02*
D03*
X2935000D02*
D03*
X3035000Y770000D02*
D03*
D47*
X2935000Y1670000D02*
D03*
Y1215000D02*
D03*
Y770000D02*
D03*
D48*
X442795Y1364961D02*
D03*
D49*
X305000Y1550000D02*
D03*
X549095D02*
D03*
D50*
X470039Y1005000D02*
D03*
X99961D02*
D03*
X285000D02*
D03*
D51*
X112245Y610074D02*
D03*
Y269914D02*
D03*
X261845Y610074D02*
D03*
Y269914D02*
D03*
D52*
X1665000Y1430000D02*
D03*
D53*
X1565000D02*
D03*
X1465000D02*
D03*
D54*
X725000Y895000D02*
D03*
X845000D02*
D03*
X785000D02*
D03*
X30000Y1685000D02*
D03*
Y1335000D02*
D03*
Y1385000D02*
D03*
Y1635000D02*
D03*
Y1485000D02*
D03*
Y1535000D02*
D03*
Y1585000D02*
D03*
Y1435000D02*
D03*
Y1735000D02*
D03*
Y985000D02*
D03*
Y1035000D02*
D03*
Y1085000D02*
D03*
Y1135000D02*
D03*
Y1185000D02*
D03*
Y1235000D02*
D03*
Y1285000D02*
D03*
Y285000D02*
D03*
Y685000D02*
D03*
Y735000D02*
D03*
Y485000D02*
D03*
Y335000D02*
D03*
Y535000D02*
D03*
Y635000D02*
D03*
Y435000D02*
D03*
Y835000D02*
D03*
Y885000D02*
D03*
Y935000D02*
D03*
Y585000D02*
D03*
Y385000D02*
D03*
Y785000D02*
D03*
Y235000D02*
D03*
X95000Y1180000D02*
D03*
X3125000Y1740000D02*
D03*
Y590000D02*
D03*
Y240000D02*
D03*
Y390000D02*
D03*
Y690000D02*
D03*
Y740000D02*
D03*
Y990000D02*
D03*
Y490000D02*
D03*
Y290000D02*
D03*
Y340000D02*
D03*
Y540000D02*
D03*
Y640000D02*
D03*
Y440000D02*
D03*
Y790000D02*
D03*
Y840000D02*
D03*
Y890000D02*
D03*
Y940000D02*
D03*
Y1040000D02*
D03*
Y1090000D02*
D03*
Y1140000D02*
D03*
Y1190000D02*
D03*
Y1240000D02*
D03*
Y1290000D02*
D03*
Y1340000D02*
D03*
Y1390000D02*
D03*
Y1640000D02*
D03*
Y1690000D02*
D03*
Y1490000D02*
D03*
Y1540000D02*
D03*
Y1590000D02*
D03*
Y1440000D02*
D03*
X2295000Y1865000D02*
D03*
X235000Y25000D02*
D03*
X2605000Y1945000D02*
D03*
X2755000D02*
D03*
X2705000D02*
D03*
X2655000D02*
D03*
X2855000D02*
D03*
X2805000D02*
D03*
X2905000D02*
D03*
X2205000D02*
D03*
X2355000D02*
D03*
X2305000D02*
D03*
X2255000D02*
D03*
X2455000D02*
D03*
X2405000D02*
D03*
X2505000D02*
D03*
X2555000D02*
D03*
X1805000D02*
D03*
X1755000D02*
D03*
X1955000D02*
D03*
X1905000D02*
D03*
X1855000D02*
D03*
X2055000D02*
D03*
X2005000D02*
D03*
X2105000D02*
D03*
X2155000D02*
D03*
X1405000D02*
D03*
X1555000D02*
D03*
X1505000D02*
D03*
X1455000D02*
D03*
X1655000D02*
D03*
X1605000D02*
D03*
X1705000D02*
D03*
X1005000D02*
D03*
X955000D02*
D03*
X1155000D02*
D03*
X1105000D02*
D03*
X1055000D02*
D03*
X1255000D02*
D03*
X1205000D02*
D03*
X1305000D02*
D03*
X605000D02*
D03*
X555000D02*
D03*
X755000D02*
D03*
X655000D02*
D03*
X855000D02*
D03*
X805000D02*
D03*
X905000D02*
D03*
X355000D02*
D03*
X305000D02*
D03*
X255000D02*
D03*
X455000D02*
D03*
X405000D02*
D03*
X505000D02*
D03*
X1355000D02*
D03*
X705000D02*
D03*
X685000Y25000D02*
D03*
X1335000D02*
D03*
X485000D02*
D03*
X385000D02*
D03*
X435000D02*
D03*
X285000D02*
D03*
X335000D02*
D03*
X885000D02*
D03*
X785000D02*
D03*
X835000D02*
D03*
X635000D02*
D03*
X735000D02*
D03*
X535000D02*
D03*
X585000D02*
D03*
X1285000D02*
D03*
X1185000D02*
D03*
X1235000D02*
D03*
X1035000D02*
D03*
X1085000D02*
D03*
X1135000D02*
D03*
X935000D02*
D03*
X985000D02*
D03*
X1685000D02*
D03*
X1585000D02*
D03*
X1635000D02*
D03*
X1435000D02*
D03*
X1485000D02*
D03*
X1535000D02*
D03*
X1385000D02*
D03*
X2085000D02*
D03*
X1985000D02*
D03*
X2035000D02*
D03*
X1835000D02*
D03*
X1885000D02*
D03*
X1935000D02*
D03*
X1735000D02*
D03*
X1785000D02*
D03*
X2485000D02*
D03*
X2385000D02*
D03*
X2435000D02*
D03*
X2235000D02*
D03*
X2285000D02*
D03*
X2335000D02*
D03*
X2135000D02*
D03*
X2185000D02*
D03*
X2885000D02*
D03*
X2785000D02*
D03*
X2835000D02*
D03*
X2635000D02*
D03*
X2685000D02*
D03*
X2735000D02*
D03*
X2535000D02*
D03*
X2585000D02*
D03*
X2825000Y1090000D02*
D03*
X2395000Y1800000D02*
D03*
X2620000Y1835000D02*
D03*
X1250000Y315000D02*
D03*
X2605000Y1385000D02*
D03*
X2700000Y1465000D02*
D03*
X1615000Y540000D02*
D03*
X725000Y1065000D02*
D03*
X785000D02*
D03*
X845000D02*
D03*
X785000Y1005000D02*
D03*
X1405000Y520000D02*
D03*
X1450000D02*
D03*
X1405000Y475000D02*
D03*
X1450000D02*
D03*
X1405000Y565000D02*
D03*
X1450000D02*
D03*
X1260000Y545000D02*
D03*
X322168Y331750D02*
D03*
X425000Y821929D02*
D03*
X550000Y811929D02*
D03*
X1510000Y1035000D02*
D03*
X2825000Y640000D02*
D03*
X2265000Y490000D02*
D03*
X2820000Y1365000D02*
D03*
X1805000Y885000D02*
D03*
X1810000Y1300000D02*
D03*
X1200000Y625000D02*
D03*
X325000Y550000D02*
D03*
X1905000Y955000D02*
D03*
X725000Y1010000D02*
D03*
X845000D02*
D03*
Y950000D02*
D03*
X785000D02*
D03*
X725000D02*
D03*
X1700000Y1035000D02*
D03*
X1128333Y910000D02*
D03*
X1191667D02*
D03*
X1255000D02*
D03*
X1065000D02*
D03*
X1128333Y993333D02*
D03*
X1191667D02*
D03*
X1255000D02*
D03*
X1065000D02*
D03*
X1128333Y1076667D02*
D03*
X1191667D02*
D03*
X1255000D02*
D03*
X1065000D02*
D03*
Y1160000D02*
D03*
X1255000D02*
D03*
X1191667D02*
D03*
X1128333D02*
D03*
M02*
