G04*
G04 #@! TF.GenerationSoftware,Altium Limited,Altium Designer,24.0.1 (36)*
G04*
G04 Layer_Color=16711935*
%FSLAX26Y26*%
%MOIN*%
G70*
G04*
G04 #@! TF.SameCoordinates,AB7DD749-DD38-46E5-A677-7F6656662C7D*
G04*
G04*
G04 #@! TF.FilePolarity,Negative*
G04*
G01*
G75*
%ADD43C,0.208000*%
%ADD44R,0.078866X0.078866*%
%ADD45C,0.078866*%
%ADD46C,0.070992*%
%ADD47R,0.070992X0.070992*%
%ADD48R,0.165480X0.086740*%
%ADD49R,0.086740X0.165480*%
%ADD50C,0.086740*%
%ADD51O,0.078822X0.051307*%
%ADD52R,0.074929X0.074929*%
%ADD53C,0.074929*%
%ADD54C,0.032000*%
D43*
X3035000Y115000D02*
D03*
Y1855000D02*
D03*
X115000Y115000D02*
D03*
Y1855000D02*
D03*
D44*
X2190000Y333898D02*
D03*
X985000Y455000D02*
D03*
D45*
X2190000Y196102D02*
D03*
X985000Y317205D02*
D03*
D46*
X2935000Y1370000D02*
D03*
X3035000D02*
D03*
Y1470000D02*
D03*
X2935000D02*
D03*
X3035000Y1570000D02*
D03*
X2935000D02*
D03*
X3035000Y1670000D02*
D03*
X2935000Y915000D02*
D03*
X3035000D02*
D03*
Y1015000D02*
D03*
X2935000D02*
D03*
X3035000Y1115000D02*
D03*
X2935000D02*
D03*
X3035000Y1215000D02*
D03*
X2935000Y470000D02*
D03*
X3035000D02*
D03*
Y570000D02*
D03*
X2935000D02*
D03*
X3035000Y670000D02*
D03*
X2935000D02*
D03*
X3035000Y770000D02*
D03*
D47*
X2935000Y1670000D02*
D03*
Y1215000D02*
D03*
Y770000D02*
D03*
D48*
X442795Y1364961D02*
D03*
D49*
X305000Y1550000D02*
D03*
X549095D02*
D03*
D50*
X470039Y1005000D02*
D03*
X99961D02*
D03*
X285000D02*
D03*
D51*
X112245Y610074D02*
D03*
Y269914D02*
D03*
X261845Y610074D02*
D03*
Y269914D02*
D03*
D52*
X1665000Y1430000D02*
D03*
D53*
X1565000D02*
D03*
X1465000D02*
D03*
D54*
X725000Y895000D02*
D03*
X845000D02*
D03*
X785000D02*
D03*
X30000Y1685000D02*
D03*
Y1335000D02*
D03*
Y1385000D02*
D03*
Y1635000D02*
D03*
Y1485000D02*
D03*
Y1535000D02*
D03*
Y1585000D02*
D03*
Y1435000D02*
D03*
Y1735000D02*
D03*
Y985000D02*
D03*
Y1035000D02*
D03*
Y1085000D02*
D03*
Y1135000D02*
D03*
Y1185000D02*
D03*
Y1235000D02*
D03*
Y1285000D02*
D03*
Y285000D02*
D03*
Y685000D02*
D03*
Y735000D02*
D03*
Y485000D02*
D03*
Y335000D02*
D03*
Y535000D02*
D03*
Y635000D02*
D03*
Y435000D02*
D03*
Y835000D02*
D03*
Y885000D02*
D03*
Y935000D02*
D03*
Y585000D02*
D03*
Y385000D02*
D03*
Y785000D02*
D03*
Y235000D02*
D03*
X95000Y1180000D02*
D03*
X3125000Y1740000D02*
D03*
Y590000D02*
D03*
Y240000D02*
D03*
Y390000D02*
D03*
Y690000D02*
D03*
Y740000D02*
D03*
Y990000D02*
D03*
Y490000D02*
D03*
Y290000D02*
D03*
Y340000D02*
D03*
Y540000D02*
D03*
Y640000D02*
D03*
Y440000D02*
D03*
Y790000D02*
D03*
Y840000D02*
D03*
Y890000D02*
D03*
Y940000D02*
D03*
Y1040000D02*
D03*
Y1090000D02*
D03*
Y1140000D02*
D03*
Y1190000D02*
D03*
Y1240000D02*
D03*
Y1290000D02*
D03*
Y1340000D02*
D03*
Y1390000D02*
D03*
Y1640000D02*
D03*
Y1690000D02*
D03*
Y1490000D02*
D03*
Y1540000D02*
D03*
Y1590000D02*
D03*
Y1440000D02*
D03*
X2295000Y1865000D02*
D03*
X235000Y25000D02*
D03*
X2605000Y1945000D02*
D03*
X2755000D02*
D03*
X2705000D02*
D03*
X2655000D02*
D03*
X2855000D02*
D03*
X2805000D02*
D03*
X2905000D02*
D03*
X2205000D02*
D03*
X2355000D02*
D03*
X2305000D02*
D03*
X2255000D02*
D03*
X2455000D02*
D03*
X2405000D02*
D03*
X2505000D02*
D03*
X2555000D02*
D03*
X1805000D02*
D03*
X1755000D02*
D03*
X1955000D02*
D03*
X1905000D02*
D03*
X1855000D02*
D03*
X2055000D02*
D03*
X2005000D02*
D03*
X2105000D02*
D03*
X2155000D02*
D03*
X1405000D02*
D03*
X1555000D02*
D03*
X1505000D02*
D03*
X1455000D02*
D03*
X1655000D02*
D03*
X1605000D02*
D03*
X1705000D02*
D03*
X1005000D02*
D03*
X955000D02*
D03*
X1155000D02*
D03*
X1105000D02*
D03*
X1055000D02*
D03*
X1255000D02*
D03*
X1205000D02*
D03*
X1305000D02*
D03*
X605000D02*
D03*
X555000D02*
D03*
X755000D02*
D03*
X655000D02*
D03*
X855000D02*
D03*
X805000D02*
D03*
X905000D02*
D03*
X355000D02*
D03*
X305000D02*
D03*
X255000D02*
D03*
X455000D02*
D03*
X405000D02*
D03*
X505000D02*
D03*
X1355000D02*
D03*
X705000D02*
D03*
X685000Y25000D02*
D03*
X1335000D02*
D03*
X485000D02*
D03*
X385000D02*
D03*
X435000D02*
D03*
X285000D02*
D03*
X335000D02*
D03*
X885000D02*
D03*
X785000D02*
D03*
X835000D02*
D03*
X635000D02*
D03*
X735000D02*
D03*
X535000D02*
D03*
X585000D02*
D03*
X1285000D02*
D03*
X1185000D02*
D03*
X1235000D02*
D03*
X1035000D02*
D03*
X1085000D02*
D03*
X1135000D02*
D03*
X935000D02*
D03*
X985000D02*
D03*
X1685000D02*
D03*
X1585000D02*
D03*
X1635000D02*
D03*
X1435000D02*
D03*
X1485000D02*
D03*
X1535000D02*
D03*
X1385000D02*
D03*
X2085000D02*
D03*
X1985000D02*
D03*
X2035000D02*
D03*
X1835000D02*
D03*
X1885000D02*
D03*
X1935000D02*
D03*
X1735000D02*
D03*
X1785000D02*
D03*
X2485000D02*
D03*
X2385000D02*
D03*
X2435000D02*
D03*
X2235000D02*
D03*
X2285000D02*
D03*
X2335000D02*
D03*
X2135000D02*
D03*
X2185000D02*
D03*
X2885000D02*
D03*
X2785000D02*
D03*
X2835000D02*
D03*
X2635000D02*
D03*
X2685000D02*
D03*
X2735000D02*
D03*
X2535000D02*
D03*
X2585000D02*
D03*
X2825000Y1090000D02*
D03*
X2395000Y1800000D02*
D03*
X2620000Y1835000D02*
D03*
X1250000Y315000D02*
D03*
X2605000Y1385000D02*
D03*
X2700000Y1465000D02*
D03*
X1615000Y540000D02*
D03*
X725000Y1065000D02*
D03*
X785000D02*
D03*
X845000D02*
D03*
X785000Y1005000D02*
D03*
X1405000Y520000D02*
D03*
X1450000D02*
D03*
X1405000Y475000D02*
D03*
X1450000D02*
D03*
X1405000Y565000D02*
D03*
X1450000D02*
D03*
X1260000Y545000D02*
D03*
X322168Y331750D02*
D03*
X425000Y821929D02*
D03*
X550000Y811929D02*
D03*
X1510000Y1035000D02*
D03*
X2825000Y640000D02*
D03*
X2265000Y490000D02*
D03*
X2820000Y1365000D02*
D03*
X1805000Y885000D02*
D03*
X1810000Y1300000D02*
D03*
X1200000Y625000D02*
D03*
X325000Y550000D02*
D03*
X1905000Y955000D02*
D03*
X725000Y1010000D02*
D03*
X845000D02*
D03*
Y950000D02*
D03*
X785000D02*
D03*
X725000D02*
D03*
X1700000Y1035000D02*
D03*
X1128333Y910000D02*
D03*
X1191667D02*
D03*
X1255000D02*
D03*
X1065000D02*
D03*
X1128333Y993333D02*
D03*
X1191667D02*
D03*
X1255000D02*
D03*
X1065000D02*
D03*
X1128333Y1076667D02*
D03*
X1191667D02*
D03*
X1255000D02*
D03*
X1065000D02*
D03*
Y1160000D02*
D03*
X1255000D02*
D03*
X1191667D02*
D03*
X1128333D02*
D03*
M02*
