G04*
G04 #@! TF.GenerationSoftware,Altium Limited,Altium Designer,24.0.1 (36)*
G04*
G04 Layer_Color=65535*
%FSLAX26Y26*%
%MOIN*%
G70*
G04*
G04 #@! TF.SameCoordinates,AB7DD749-DD38-46E5-A677-7F6656662C7D*
G04*
G04*
G04 #@! TF.FilePolarity,Positive*
G04*
G01*
G75*
%ADD10C,0.010000*%
%ADD11C,0.019843*%
%ADD12C,0.007874*%
%ADD13C,0.009842*%
%ADD14C,0.019685*%
%ADD15C,0.008000*%
%ADD16C,0.003937*%
%ADD17C,0.006000*%
D10*
X1815003Y254997D02*
G03*
X1855003Y254997I20000J0D01*
G01*
X1775003D02*
G03*
X1815003Y254997I20000J0D01*
G01*
X1855003D02*
G03*
X1895003Y254997I20000J0D01*
G01*
X620000Y281929D02*
G03*
X620000Y281929I-5000J0D01*
G01*
X420000Y441929D02*
G03*
X416382Y469408I-7500J12990D01*
G01*
X420000Y441929D02*
G03*
X423618Y414450I7500J-12990D01*
G01*
X2364997Y1385003D02*
G03*
X2324997Y1385003I-20000J0D01*
G01*
X2444997D02*
G03*
X2404997Y1385003I-20000J0D01*
G01*
D02*
G03*
X2364997Y1385003I-20000J0D01*
G01*
X1555000Y370000D02*
G03*
X1555000Y370000I-5000J0D01*
G01*
X1914000Y101000D02*
X1972000D01*
Y389000D01*
X1914000D02*
X1972000D01*
X1698000Y101000D02*
X1756000D01*
X1698000D02*
Y389000D01*
X1756000D01*
X1895003Y254997D02*
X1925003D01*
X1745003D02*
X1775003D01*
X447000Y1227000D02*
Y1263000D01*
X430000Y1280000D02*
X447000Y1263000D01*
X377500Y1280000D02*
X430000D01*
X377500Y1210000D02*
X430000D01*
X447000Y1227000D01*
X350600Y1211900D02*
Y1276700D01*
X227500Y1210000D02*
Y1280000D01*
Y1210000D02*
X292500D01*
X227500Y1280000D02*
X292500D01*
X318600Y1275500D02*
X350600Y1243500D01*
X318600Y1213800D02*
Y1275500D01*
Y1213800D02*
X349000Y1244200D01*
X393800Y703330D02*
X424200Y672929D01*
X393800Y703330D02*
X455500D01*
X423500Y671330D02*
X455500Y703330D01*
X460000Y729429D02*
Y794429D01*
X390000Y729429D02*
Y794429D01*
X460000D01*
X391900Y671330D02*
X456700D01*
X390000Y591929D02*
X407000Y574929D01*
X390000Y591929D02*
Y644429D01*
X460000Y591929D02*
Y644429D01*
X443000Y574929D02*
X460000Y591929D01*
X407000Y574929D02*
X443000D01*
X560003Y416027D02*
X562000Y426929D01*
X548000D02*
X562000D01*
X548000D02*
X560000Y404929D01*
X572000Y429929D01*
X600000Y351929D02*
X613150D01*
X600000Y316929D02*
X620000D01*
X506850Y351929D02*
X520000D01*
X500000Y316929D02*
X520000D01*
X602520Y523228D02*
X620000D01*
X500000Y316929D02*
Y523228D01*
X516496D01*
X620000Y316929D02*
Y523228D01*
X465000Y506929D02*
Y546929D01*
X375000D02*
X465000D01*
X375000Y506929D02*
Y546929D01*
Y351929D02*
Y441929D01*
X465000D02*
Y531929D01*
Y336929D02*
Y376929D01*
X375000Y336929D02*
X465000D01*
X375000D02*
Y376929D01*
X2444997Y1385003D02*
X2474997D01*
X2294997D02*
X2324997D01*
X2464000Y1251000D02*
X2522000D01*
Y1539000D01*
X2464000D02*
X2522000D01*
X2248000Y1251000D02*
X2306000D01*
X2248000D02*
Y1539000D01*
X2306000D01*
X520905Y1372835D02*
Y1727165D01*
X9724Y1372835D02*
X520905D01*
X9724Y1372835D02*
Y1727165D01*
Y1727165D02*
X520905D01*
X9410Y870000D02*
X560590D01*
X9410D02*
Y1140000D01*
X560590D01*
Y870000D02*
Y1140000D01*
X163346Y266772D02*
X212164D01*
X161456Y613228D02*
X210275D01*
X9855Y266400D02*
X63055D01*
X9881Y613228D02*
X64212D01*
X9881Y266378D02*
Y613623D01*
X1308701Y375000D02*
X1515000D01*
X1308701Y255000D02*
Y271496D01*
Y255000D02*
X1515000D01*
X1308701Y357520D02*
Y375000D01*
X1515000Y255000D02*
Y275000D01*
X1480000Y261850D02*
Y275000D01*
X1515000Y355000D02*
Y375000D01*
X1480000Y355000D02*
Y368150D01*
X1402000Y327000D02*
X1427000Y315000D01*
X1405000Y303000D02*
X1427000Y315000D01*
X1405000Y303000D02*
Y317000D01*
X1415902Y315003D01*
X2735005Y1470018D02*
X2764995D01*
Y1490011D01*
X2735005Y1520002D02*
Y1500008D01*
X2764995D01*
Y1520002D01*
X2750000Y1500008D02*
Y1510005D01*
X2735005Y1529998D02*
X2764995D01*
Y1544994D01*
X2759997Y1549992D01*
X2740003D01*
X2735005Y1544994D01*
Y1529998D01*
X2740003Y1559989D02*
X2735005Y1564987D01*
Y1574984D01*
X2740003Y1579982D01*
X2745002D01*
X2750000Y1574984D01*
Y1569986D01*
Y1574984D01*
X2754998Y1579982D01*
X2759997D01*
X2764995Y1574984D01*
Y1564987D01*
X2759997Y1559989D01*
X2895995Y178665D02*
Y208656D01*
X2881000Y193661D01*
X2900994D01*
X2880003Y1929997D02*
X2885002Y1934995D01*
X2894999D01*
X2899997Y1929997D01*
Y1924998D01*
X2894999Y1920000D01*
X2890000D01*
X2894999D01*
X2899997Y1915002D01*
Y1910003D01*
X2894999Y1905005D01*
X2885002D01*
X2880003Y1910003D01*
X1995006Y399995D02*
Y370005D01*
X2015000D01*
X2024997D02*
X2034994D01*
X2029995D01*
Y399995D01*
X2024997Y394997D01*
X2485019Y305000D02*
Y344987D01*
X2495016D01*
X2535003Y305000D01*
X2545000D01*
Y344987D01*
X2495016Y404968D02*
X2485019Y394971D01*
Y374977D01*
X2495016Y364981D01*
X2535003D01*
X2545000Y374977D01*
Y394971D01*
X2535003Y404968D01*
X2485019Y424961D02*
X2545000D01*
X2515010D01*
Y464948D01*
X2485019D01*
X2545000D01*
Y544922D02*
X2485019D01*
Y574913D01*
X2495016Y584909D01*
X2515010D01*
X2525006Y574913D01*
Y544922D01*
X2505013Y604903D02*
X2545000D01*
X2525006D01*
X2515010Y614900D01*
X2505013Y624896D01*
Y634893D01*
X2545000Y674880D02*
Y694874D01*
X2535003Y704871D01*
X2515010D01*
X2505013Y694874D01*
Y674880D01*
X2515010Y664884D01*
X2535003D01*
X2545000Y674880D01*
X2485019Y764851D02*
X2545000D01*
Y734861D01*
X2535003Y724864D01*
X2515010D01*
X2505013Y734861D01*
Y764851D01*
Y784845D02*
X2535003D01*
X2545000Y794842D01*
Y824832D01*
X2505013D01*
Y884812D02*
Y854822D01*
X2515010Y844825D01*
X2535003D01*
X2545000Y854822D01*
Y884812D01*
X2495016Y914803D02*
X2505013D01*
Y904806D01*
Y924799D01*
Y914803D01*
X2535003D01*
X2545000Y924799D01*
Y954790D02*
Y974783D01*
Y964787D01*
X2505013D01*
Y954790D01*
X2545000Y1014770D02*
Y1034764D01*
X2535003Y1044761D01*
X2515010D01*
X2505013Y1034764D01*
Y1014770D01*
X2515010Y1004774D01*
X2535003D01*
X2545000Y1014770D01*
Y1064754D02*
X2505013D01*
Y1094745D01*
X2515010Y1104741D01*
X2545000D01*
X2454987Y85000D02*
X2415000D01*
X2454987Y124987D01*
Y134984D01*
X2444990Y144981D01*
X2424997D01*
X2415000Y134984D01*
X2474981D02*
X2484977Y144981D01*
X2504971D01*
X2514968Y134984D01*
Y94997D01*
X2504971Y85000D01*
X2484977D01*
X2474981Y94997D01*
Y134984D01*
X2574948Y85000D02*
X2534961D01*
X2574948Y124987D01*
Y134984D01*
X2564952Y144981D01*
X2544958D01*
X2534961Y134984D01*
X2634929Y144981D02*
X2614935Y134984D01*
X2594942Y114990D01*
Y94997D01*
X2604939Y85000D01*
X2624932D01*
X2634929Y94997D01*
Y104993D01*
X2624932Y114990D01*
X2594942D01*
X2654922Y85000D02*
Y94997D01*
X2664919D01*
Y85000D01*
X2654922D01*
X2744893Y144981D02*
X2724900Y134984D01*
X2704906Y114990D01*
Y94997D01*
X2714903Y85000D01*
X2734896D01*
X2744893Y94997D01*
Y104993D01*
X2734896Y114990D01*
X2704906D01*
X2764887Y85000D02*
Y94997D01*
X2774884D01*
Y85000D01*
X2764887D01*
X2814871Y134984D02*
X2824867Y144981D01*
X2844861D01*
X2854858Y134984D01*
Y124987D01*
X2844861Y114990D01*
X2834864D01*
X2844861D01*
X2854858Y104993D01*
Y94997D01*
X2844861Y85000D01*
X2824867D01*
X2814871Y94997D01*
X1425013Y1524995D02*
Y1495005D01*
X1445006D01*
X1474997Y1524995D02*
X1455003D01*
Y1495005D01*
X1474997D01*
X1455003Y1510000D02*
X1465000D01*
X1484994Y1524995D02*
Y1495005D01*
X1499989D01*
X1504987Y1500003D01*
Y1519997D01*
X1499989Y1524995D01*
X1484994D01*
X45008Y655005D02*
Y684995D01*
X60003D01*
X65002Y679997D01*
Y670000D01*
X60003Y665002D01*
X45008D01*
X94992Y655005D02*
X74998D01*
X94992Y674998D01*
Y679997D01*
X89994Y684995D01*
X79997D01*
X74998Y679997D01*
X284997Y75005D02*
X265003D01*
X284997Y94998D01*
Y99997D01*
X279998Y104995D01*
X270002D01*
X265003Y99997D01*
X240002Y1870005D02*
X249998D01*
X245000D01*
Y1899995D01*
X240002Y1894997D01*
X2059995Y1459992D02*
X2035003D01*
X2030005Y1454993D01*
Y1444997D01*
X2035003Y1439998D01*
X2059995D01*
X2054997Y1430002D02*
X2059995Y1425003D01*
Y1415006D01*
X2054997Y1410008D01*
X2049998D01*
X2045000Y1415006D01*
Y1420005D01*
Y1415006D01*
X2040002Y1410008D01*
X2035003D01*
X2030005Y1415006D01*
Y1425003D01*
X2035003Y1430002D01*
X1005008Y1284995D02*
Y1260003D01*
X1010006Y1255005D01*
X1020003D01*
X1025002Y1260003D01*
Y1284995D01*
X1054992Y1255005D02*
X1034998D01*
X1054992Y1274998D01*
Y1279997D01*
X1049994Y1284995D01*
X1039997D01*
X1034998Y1279997D01*
X1296266Y696688D02*
Y671696D01*
X1301265Y666698D01*
X1311262D01*
X1316260Y671696D01*
Y696688D01*
X1326257Y666698D02*
X1336253D01*
X1331255D01*
Y696688D01*
X1326257Y691690D01*
X55000Y834997D02*
X50002Y839995D01*
X40005D01*
X35007Y834997D01*
Y829998D01*
X40005Y825000D01*
X50002D01*
X55000Y820002D01*
Y815003D01*
X50002Y810005D01*
X40005D01*
X35007Y815003D01*
X64997Y810005D02*
X74994D01*
X69995D01*
Y839995D01*
X64997Y834997D01*
X2622510Y1720005D02*
Y1749995D01*
X2637506D01*
X2642504Y1744997D01*
Y1735000D01*
X2637506Y1730002D01*
X2622510D01*
X2632507D02*
X2642504Y1720005D01*
X2652501D02*
X2662498D01*
X2657499D01*
Y1749995D01*
X2652501Y1744997D01*
X2677493Y1720005D02*
X2687490D01*
X2682491D01*
Y1749995D01*
X2677493Y1744997D01*
X2487512Y1890005D02*
Y1919995D01*
X2502507D01*
X2507506Y1914997D01*
Y1905000D01*
X2502507Y1900002D01*
X2487512D01*
X2497509D02*
X2507506Y1890005D01*
X2517503D02*
X2527499D01*
X2522501D01*
Y1919995D01*
X2517503Y1914997D01*
X2542494D02*
X2547493Y1919995D01*
X2557490D01*
X2562488Y1914997D01*
Y1895003D01*
X2557490Y1890005D01*
X2547493D01*
X2542494Y1895003D01*
Y1914997D01*
X2550008Y1730005D02*
Y1759995D01*
X2565003D01*
X2570002Y1754997D01*
Y1745000D01*
X2565003Y1740002D01*
X2550008D01*
X2560005D02*
X2570002Y1730005D01*
X2579998Y1735003D02*
X2584997Y1730005D01*
X2594994D01*
X2599992Y1735003D01*
Y1754997D01*
X2594994Y1759995D01*
X2584997D01*
X2579998Y1754997D01*
Y1749998D01*
X2584997Y1745000D01*
X2599992D01*
X2090008Y1150005D02*
Y1179995D01*
X2105003D01*
X2110002Y1174997D01*
Y1165000D01*
X2105003Y1160002D01*
X2090008D01*
X2100005D02*
X2110002Y1150005D01*
X2119998Y1174997D02*
X2124997Y1179995D01*
X2134994D01*
X2139992Y1174997D01*
Y1169998D01*
X2134994Y1165000D01*
X2139992Y1160002D01*
Y1155003D01*
X2134994Y1150005D01*
X2124997D01*
X2119998Y1155003D01*
Y1160002D01*
X2124997Y1165000D01*
X2119998Y1169998D01*
Y1174997D01*
X2124997Y1165000D02*
X2134994D01*
X1910008Y1205005D02*
Y1234995D01*
X1925003D01*
X1930002Y1229997D01*
Y1220000D01*
X1925003Y1215002D01*
X1910008D01*
X1920005D02*
X1930002Y1205005D01*
X1939998Y1234995D02*
X1959992D01*
Y1229997D01*
X1939998Y1210003D01*
Y1205005D01*
X1754995Y1245008D02*
X1725005D01*
Y1260003D01*
X1730003Y1265002D01*
X1740000D01*
X1744998Y1260003D01*
Y1245008D01*
Y1255005D02*
X1754995Y1265002D01*
X1725005Y1294992D02*
X1730003Y1284995D01*
X1740000Y1274998D01*
X1749997D01*
X1754995Y1279997D01*
Y1289994D01*
X1749997Y1294992D01*
X1744998D01*
X1740000Y1289994D01*
Y1274998D01*
X2185008Y645005D02*
Y674995D01*
X2200003D01*
X2205002Y669997D01*
Y660000D01*
X2200003Y655002D01*
X2185008D01*
X2195005D02*
X2205002Y645005D01*
X2234992Y674995D02*
X2214998D01*
Y660000D01*
X2224995Y664998D01*
X2229994D01*
X2234992Y660000D01*
Y650003D01*
X2229994Y645005D01*
X2219997D01*
X2214998Y650003D01*
X1720008Y620005D02*
Y649995D01*
X1735003D01*
X1740002Y644997D01*
Y635000D01*
X1735003Y630002D01*
X1720008D01*
X1730005D02*
X1740002Y620005D01*
X1764994D02*
Y649995D01*
X1749998Y635000D01*
X1769992D01*
X1825008Y595005D02*
Y624995D01*
X1840003D01*
X1845002Y619997D01*
Y610000D01*
X1840003Y605002D01*
X1825008D01*
X1835005D02*
X1845002Y595005D01*
X1854998Y619997D02*
X1859997Y624995D01*
X1869994D01*
X1874992Y619997D01*
Y614998D01*
X1869994Y610000D01*
X1864995D01*
X1869994D01*
X1874992Y605002D01*
Y600003D01*
X1869994Y595005D01*
X1859997D01*
X1854998Y600003D01*
X72406Y1295002D02*
Y1324992D01*
X87402D01*
X92400Y1319994D01*
Y1309997D01*
X87402Y1304998D01*
X72406D01*
X82403D02*
X92400Y1295002D01*
X122390D02*
X102397D01*
X122390Y1314995D01*
Y1319994D01*
X117392Y1324992D01*
X107395D01*
X102397Y1319994D01*
X565006Y1310005D02*
Y1339995D01*
X580002D01*
X585000Y1334997D01*
Y1325000D01*
X580002Y1320002D01*
X565006D01*
X575003D02*
X585000Y1310005D01*
X594997D02*
X604994D01*
X599995D01*
Y1339995D01*
X594997Y1334997D01*
X775000Y1260003D02*
Y1279997D01*
X770002Y1284995D01*
X760005D01*
X755006Y1279997D01*
Y1260003D01*
X760005Y1255005D01*
X770002D01*
X765003Y1265002D02*
X775000Y1255005D01*
X770002D02*
X775000Y1260003D01*
X784997Y1255005D02*
X794994D01*
X789995D01*
Y1284995D01*
X784997Y1279997D01*
X300007Y1745005D02*
Y1774995D01*
X315002D01*
X320000Y1769997D01*
Y1760000D01*
X315002Y1755002D01*
X300007D01*
X329997Y1745005D02*
X339994D01*
X334995D01*
Y1774995D01*
X329997Y1769997D01*
X2735005Y955018D02*
X2764995D01*
Y975011D01*
X2735005Y1005002D02*
Y985008D01*
X2764995D01*
Y1005002D01*
X2750000Y985008D02*
Y995005D01*
X2735005Y1014998D02*
X2764995D01*
Y1029994D01*
X2759997Y1034992D01*
X2740003D01*
X2735005Y1029994D01*
Y1014998D01*
X2764995Y1064982D02*
Y1044989D01*
X2745002Y1064982D01*
X2740003D01*
X2735005Y1059984D01*
Y1049987D01*
X2740003Y1044989D01*
X2735005Y510016D02*
X2764995D01*
Y530010D01*
X2735005Y560000D02*
Y540006D01*
X2764995D01*
Y560000D01*
X2750000Y540006D02*
Y550003D01*
X2735005Y569997D02*
X2764995D01*
Y584992D01*
X2759997Y589990D01*
X2740003D01*
X2735005Y584992D01*
Y569997D01*
X2764995Y599987D02*
Y609984D01*
Y604986D01*
X2735005D01*
X2740003Y599987D01*
X2475008Y1599995D02*
Y1570005D01*
X2495002D01*
X2524992D02*
X2504998D01*
X2524992Y1589998D01*
Y1594997D01*
X2519994Y1599995D01*
X2509997D01*
X2504998Y1594997D01*
X2835005Y1650006D02*
Y1640010D01*
Y1645008D01*
X2859997D01*
X2864995Y1640010D01*
Y1635011D01*
X2859997Y1630013D01*
X2864995Y1660003D02*
X2835005D01*
Y1674998D01*
X2840003Y1679997D01*
X2850000D01*
X2854998Y1674998D01*
Y1660003D01*
X2840003Y1689994D02*
X2835005Y1694992D01*
Y1704989D01*
X2840003Y1709987D01*
X2845002D01*
X2850000Y1704989D01*
Y1699990D01*
Y1704989D01*
X2854998Y1709987D01*
X2859997D01*
X2864995Y1704989D01*
Y1694992D01*
X2859997Y1689994D01*
X2815006Y1309995D02*
X2805010D01*
X2810008D01*
Y1285003D01*
X2805010Y1280005D01*
X2800011D01*
X2795013Y1285003D01*
X2825003Y1280005D02*
Y1309995D01*
X2839999D01*
X2844997Y1304997D01*
Y1295000D01*
X2839999Y1290002D01*
X2825003D01*
X2874987Y1280005D02*
X2854994D01*
X2874987Y1299998D01*
Y1304997D01*
X2869989Y1309995D01*
X2859992D01*
X2854994Y1304997D01*
X2825005Y755005D02*
Y745008D01*
Y750007D01*
X2849997D01*
X2854995Y745008D01*
Y740010D01*
X2849997Y735011D01*
X2854995Y765002D02*
X2825005D01*
Y779997D01*
X2830003Y784995D01*
X2840000D01*
X2844998Y779997D01*
Y765002D01*
X2854995Y794992D02*
Y804989D01*
Y799990D01*
X2825005D01*
X2830003Y794992D01*
X320005Y386929D02*
Y366936D01*
X335000D01*
Y376932D01*
Y366936D01*
X349995D01*
Y396926D02*
Y406923D01*
Y401924D01*
X320005D01*
X325003Y396926D01*
X2125008Y1917161D02*
Y1887170D01*
X2140003D01*
X2145002Y1892169D01*
Y1912162D01*
X2140003Y1917161D01*
X2125008D01*
X2174992D02*
X2154998D01*
Y1902166D01*
X2164995Y1907164D01*
X2169994D01*
X2174992Y1902166D01*
Y1892169D01*
X2169994Y1887170D01*
X2159997D01*
X2154998Y1892169D01*
X655005Y461937D02*
X684995D01*
Y476932D01*
X679997Y481931D01*
X660003D01*
X655005Y476932D01*
Y461937D01*
X684995Y506923D02*
X655005D01*
X670000Y491927D01*
Y511921D01*
X340005Y741937D02*
X369995D01*
Y756932D01*
X364997Y761931D01*
X345003D01*
X340005Y756932D01*
Y741937D01*
X345003Y771928D02*
X340005Y776926D01*
Y786923D01*
X345003Y791921D01*
X350002D01*
X355000Y786923D01*
Y781924D01*
Y786923D01*
X359998Y791921D01*
X364997D01*
X369995Y786923D01*
Y776926D01*
X364997Y771928D01*
X1195005Y325008D02*
X1224995D01*
Y340003D01*
X1219997Y345002D01*
X1200003D01*
X1195005Y340003D01*
Y325008D01*
X1224995Y374992D02*
Y354998D01*
X1205002Y374992D01*
X1200003D01*
X1195005Y369994D01*
Y359997D01*
X1200003Y354998D01*
X255006Y1329995D02*
Y1300005D01*
X270002D01*
X275000Y1305003D01*
Y1324997D01*
X270002Y1329995D01*
X255006D01*
X284997Y1300005D02*
X294994D01*
X289995D01*
Y1329995D01*
X284997Y1324997D01*
X620003Y676936D02*
X615005Y671937D01*
Y661941D01*
X620003Y656942D01*
X639997D01*
X644995Y661941D01*
Y671937D01*
X639997Y676936D01*
X615005Y686932D02*
Y706926D01*
Y696929D01*
X644995D01*
X615005Y736916D02*
Y716923D01*
X630000D01*
X625002Y726919D01*
Y731918D01*
X630000Y736916D01*
X639997D01*
X644995Y731918D01*
Y721921D01*
X639997Y716923D01*
X2275006Y1914997D02*
X2270008Y1919995D01*
X2260011D01*
X2255013Y1914997D01*
Y1895003D01*
X2260011Y1890005D01*
X2270008D01*
X2275006Y1895003D01*
X2285003Y1919995D02*
X2304997D01*
X2295000D01*
Y1890005D01*
X2329989D02*
Y1919995D01*
X2314994Y1905000D01*
X2334987D01*
X2680006Y1199997D02*
X2675008Y1204995D01*
X2665011D01*
X2660013Y1199997D01*
Y1180003D01*
X2665011Y1175005D01*
X2675008D01*
X2680006Y1180003D01*
X2690003Y1204995D02*
X2709997D01*
X2700000D01*
Y1175005D01*
X2719994Y1199997D02*
X2724992Y1204995D01*
X2734989D01*
X2739987Y1199997D01*
Y1194998D01*
X2734989Y1190000D01*
X2729990D01*
X2734989D01*
X2739987Y1185002D01*
Y1180003D01*
X2734989Y1175005D01*
X2724992D01*
X2719994Y1180003D01*
X1780006Y844997D02*
X1775008Y849995D01*
X1765011D01*
X1760013Y844997D01*
Y825003D01*
X1765011Y820005D01*
X1775008D01*
X1780006Y825003D01*
X1790003Y849995D02*
X1809997D01*
X1800000D01*
Y820005D01*
X1839987D02*
X1819994D01*
X1839987Y839998D01*
Y844997D01*
X1834989Y849995D01*
X1824992D01*
X1819994Y844997D01*
X2169997Y859995D02*
X2174995Y864993D01*
Y874990D01*
X2169997Y879989D01*
X2150003D01*
X2145005Y874990D01*
Y864993D01*
X2150003Y859995D01*
X2174995Y849998D02*
Y830005D01*
Y840001D01*
X2145005D01*
Y820008D02*
Y810011D01*
Y815010D01*
X2174995D01*
X2169997Y820008D01*
X2355006Y404997D02*
X2350008Y409995D01*
X2340011D01*
X2335013Y404997D01*
Y385003D01*
X2340011Y380005D01*
X2350008D01*
X2355006Y385003D01*
X2384997Y409995D02*
X2365003D01*
Y380005D01*
X2384997D01*
X2365003Y395000D02*
X2375000D01*
X2414987Y380005D02*
X2394994D01*
X2414987Y399998D01*
Y404997D01*
X2409989Y409995D01*
X2399992D01*
X2394994Y404997D01*
X845994Y610657D02*
X840995Y615656D01*
X830998D01*
X826000Y610657D01*
Y590664D01*
X830998Y585665D01*
X840995D01*
X845994Y590664D01*
X875984Y615656D02*
X855990D01*
Y585665D01*
X875984D01*
X855990Y600660D02*
X865987D01*
X885981Y585665D02*
X895977D01*
X890979D01*
Y615656D01*
X885981Y610657D01*
X2380002Y1864997D02*
X2375003Y1869995D01*
X2365006D01*
X2360008Y1864997D01*
Y1845003D01*
X2365006Y1840005D01*
X2375003D01*
X2380002Y1845003D01*
X2389998Y1869995D02*
X2409992D01*
Y1864997D01*
X2389998Y1845003D01*
Y1840005D01*
X2600002Y1434997D02*
X2595003Y1439995D01*
X2585006D01*
X2580008Y1434997D01*
Y1415003D01*
X2585006Y1410005D01*
X2595003D01*
X2600002Y1415003D01*
X2629992Y1439995D02*
X2619995Y1434997D01*
X2609998Y1425000D01*
Y1415003D01*
X2614997Y1410005D01*
X2624994D01*
X2629992Y1415003D01*
Y1420002D01*
X2624994Y1425000D01*
X2609998D01*
X1989997Y1014998D02*
X1994995Y1019997D01*
Y1029993D01*
X1989997Y1034992D01*
X1970003D01*
X1965005Y1029993D01*
Y1019997D01*
X1970003Y1014998D01*
X1994995Y985008D02*
Y1005001D01*
X1980000D01*
X1984998Y995005D01*
Y990006D01*
X1980000Y985008D01*
X1970003D01*
X1965005Y990006D01*
Y1000003D01*
X1970003Y1005001D01*
X1950002Y899997D02*
X1945003Y904995D01*
X1935006D01*
X1930008Y899997D01*
Y880003D01*
X1935006Y875005D01*
X1945003D01*
X1950002Y880003D01*
X1974994Y875005D02*
Y904995D01*
X1959998Y890000D01*
X1979992D01*
X2054997Y509998D02*
X2059995Y514997D01*
Y524993D01*
X2054997Y529992D01*
X2035003D01*
X2030005Y524993D01*
Y514997D01*
X2035003Y509998D01*
X2054997Y500002D02*
X2059995Y495003D01*
Y485006D01*
X2054997Y480008D01*
X2049998D01*
X2045000Y485006D01*
Y490005D01*
Y485006D01*
X2040002Y480008D01*
X2035003D01*
X2030005Y485006D01*
Y495003D01*
X2035003Y500002D01*
X1615002Y299997D02*
X1610003Y304995D01*
X1600006D01*
X1595008Y299997D01*
Y280003D01*
X1600006Y275005D01*
X1610003D01*
X1615002Y280003D01*
X1644992Y275005D02*
X1624998D01*
X1644992Y294998D01*
Y299997D01*
X1639994Y304995D01*
X1629997D01*
X1624998Y299997D01*
X1200000Y674997D02*
X1195002Y679995D01*
X1185005D01*
X1180006Y674997D01*
Y655003D01*
X1185005Y650005D01*
X1195002D01*
X1200000Y655003D01*
X1209997Y650005D02*
X1219994D01*
X1214995D01*
Y679995D01*
X1209997Y674997D01*
D11*
X2087003Y120807D02*
G03*
X2292997Y120807I102996J144193D01*
G01*
X882004Y241909D02*
G03*
X1087996Y241909I102996J144193D01*
G01*
D12*
X2355354Y265000D02*
G03*
X2355354Y265000I-165354J0D01*
G01*
X1150354Y386102D02*
G03*
X1150354Y386102I-165354J0D01*
G01*
X2185000Y100000D02*
Y102520D01*
X2025000Y265000D02*
X2347480D01*
X2030000Y225000D02*
X2070000Y265000D01*
X2040000Y195000D02*
X2110000Y265000D01*
X2055000Y170000D02*
X2150000Y265000D01*
X2075000Y150000D02*
X2190000Y265000D01*
X2095000Y130000D02*
X2230000Y265000D01*
X2120000Y115000D02*
X2270000Y265000D01*
X2150000Y105000D02*
X2310000Y265000D01*
X2185000Y102520D02*
X2347480Y265000D01*
X2225000Y100000D02*
X2350000Y225000D01*
X2347480Y265000D02*
X2355000D01*
X510000Y586929D02*
X523000Y573929D01*
X577000D01*
X510000Y586929D02*
Y651929D01*
X577000Y573929D02*
X590000Y586929D01*
Y651929D01*
X510000Y716929D02*
Y786929D01*
X590000D01*
Y716929D02*
Y786929D01*
X2098976Y1548976D02*
X2221024D01*
X2203307Y1860000D02*
X2221024Y1842284D01*
X2098976D02*
X2116693Y1860000D01*
X2203307D01*
X2221024Y1548976D02*
Y1651339D01*
X2098976Y1548976D02*
Y1651339D01*
Y1745827D02*
Y1842284D01*
X2221024Y1745827D02*
Y1842284D01*
X2885000Y1320000D02*
Y1611666D01*
Y1420000D02*
Y1720000D01*
X3085000Y1320000D02*
Y1720000D01*
X2885000D02*
X3085000D01*
X2885000Y1320000D02*
X3085000D01*
X108150Y1410000D02*
X520905D01*
X108150Y1372835D02*
Y1727165D01*
Y1690000D02*
X520905D01*
X918500Y856846D02*
Y1151260D01*
X653110D02*
X918500D01*
X653110Y851335D02*
Y1151260D01*
X892300Y830646D02*
X918500Y856846D01*
X673800Y830646D02*
X892300D01*
X653110Y851335D02*
X673800Y830646D01*
X1490591Y423268D02*
Y620118D01*
X1370591Y423268D02*
Y620118D01*
X1490591D01*
X1367307Y1239724D02*
X1455890D01*
Y830276D02*
Y1239724D01*
X1367307Y830276D02*
X1455890D01*
X2093976Y1414567D02*
Y1485433D01*
X2216024Y1414567D02*
Y1485433D01*
X2214055Y1414567D02*
X2216024D01*
X2214055Y1485433D02*
X2216024D01*
X2093976Y1414567D02*
X2095945D01*
X2093976Y1485433D02*
X2095945D01*
X1415000Y1480000D02*
X1715000D01*
X1415000Y1380000D02*
Y1480000D01*
Y1380000D02*
X1715000D01*
Y1480000D01*
X2740000Y1375000D02*
Y1445000D01*
X2660000D02*
X2740000D01*
X2660000Y1375000D02*
Y1445000D01*
X2740000Y1245000D02*
Y1310000D01*
X2727000Y1232000D02*
X2740000Y1245000D01*
X2660000D02*
Y1310000D01*
X2673000Y1232000D02*
X2727000D01*
X2660000Y1245000D02*
X2673000Y1232000D01*
X2255000Y1645000D02*
X2268000Y1632000D01*
X2322000D01*
X2255000Y1645000D02*
Y1710000D01*
X2322000Y1632000D02*
X2335000Y1645000D01*
Y1710000D01*
X2255000Y1775000D02*
Y1845000D01*
X2335000D01*
Y1775000D02*
Y1845000D01*
X2885000Y865000D02*
Y1156666D01*
Y965000D02*
Y1265000D01*
X3085000Y865000D02*
Y1265000D01*
X2885000D02*
X3085000D01*
X2885000Y865000D02*
X3085000D01*
X2885000Y420000D02*
Y711666D01*
Y520000D02*
Y820000D01*
X3085000Y420000D02*
Y820000D01*
X2885000D02*
X3085000D01*
X2885000Y420000D02*
X3085000D01*
X1760000Y910000D02*
Y980000D01*
Y910000D02*
X1840000D01*
Y980000D01*
X1760000Y1045000D02*
Y1110000D01*
X1773000Y1123000D01*
X1840000Y1045000D02*
Y1110000D01*
X1773000Y1123000D02*
X1827000D01*
X1840000Y1110000D01*
X1142480Y386102D02*
X1150000D01*
X1020000Y221102D02*
X1145000Y346102D01*
X980000Y223622D02*
X1142480Y386102D01*
X945000Y226102D02*
X1105000Y386102D01*
X915000Y236102D02*
X1065000Y386102D01*
X890000Y251102D02*
X1025000Y386102D01*
X870000Y271102D02*
X985000Y386102D01*
X850000Y291102D02*
X945000Y386102D01*
X835000Y316102D02*
X905000Y386102D01*
X825000Y346102D02*
X865000Y386102D01*
X820000D02*
X1142480D01*
X980000Y221102D02*
Y223622D01*
X2045000Y725000D02*
X2058000Y712000D01*
X2112000D01*
X2045000Y725000D02*
Y790000D01*
X2112000Y712000D02*
X2125000Y725000D01*
Y790000D01*
X2045000Y855000D02*
Y925000D01*
X2125000D01*
Y855000D02*
Y925000D01*
D13*
X920039Y1237874D02*
G03*
X920039Y1237874I-4921J0D01*
G01*
X1613921Y858000D02*
G03*
X1613921Y858000I-4921J0D01*
G01*
D14*
X1536673Y401693D02*
G03*
X1536673Y401693I-6083J0D01*
G01*
D15*
X1430591Y443268D02*
G03*
X1410591Y423268I0J-20000D01*
G01*
X1450591Y423268D02*
G03*
X1430591Y443268I-20000J0D01*
G01*
X2359003Y1720000D02*
Y1771929D01*
Y1638071D02*
Y1690000D01*
X2430997Y1638071D02*
Y1690000D01*
Y1720000D02*
Y1771929D01*
X2358997D02*
X2430997D01*
X2358997Y1638071D02*
X2430997D01*
X540000Y397480D02*
X580000D01*
X540000Y432480D02*
X560000Y397480D01*
X540000Y432480D02*
X580000D01*
X560000Y397480D02*
X580000Y432480D01*
X2785000Y1400000D02*
X2855000D01*
X2785000Y1385000D02*
Y1470000D01*
Y1385000D02*
X2855000D01*
Y1470000D01*
X2785000Y1510000D02*
Y1580000D01*
X2855000D01*
Y1510000D02*
Y1580000D01*
X2604003Y1563071D02*
X2676003D01*
X2604003D02*
Y1696929D01*
X2676003D01*
Y1563071D02*
Y1696929D01*
X1370591Y423268D02*
X1410591D01*
X1450591D02*
X1490591D01*
X2569003Y1310000D02*
Y1361929D01*
Y1228071D02*
Y1280000D01*
X2640997Y1228071D02*
Y1280000D01*
Y1310000D02*
Y1361929D01*
X2568997D02*
X2640997D01*
X2568997Y1228071D02*
X2640997D01*
X2458071Y1871003D02*
X2591929D01*
X2458071Y1799003D02*
Y1871003D01*
Y1799003D02*
X2591929D01*
Y1871003D01*
X2458997Y1638071D02*
Y1771929D01*
Y1638071D02*
X2530997D01*
Y1771929D01*
X2458997D02*
X2530997D01*
X1399449Y335000D02*
X1434449Y315000D01*
X1399449Y295000D02*
Y335000D01*
Y295000D02*
X1434449Y315000D01*
Y295000D02*
Y335000D01*
X1588997Y343071D02*
X1660997D01*
X1588997Y476929D02*
X1660997D01*
Y425000D02*
Y476929D01*
Y343071D02*
Y395000D01*
X1589003Y343071D02*
Y395000D01*
Y425000D02*
Y476929D01*
X1642874Y503997D02*
X1776732D01*
Y575997D01*
X1642874D02*
X1776732D01*
X1642874Y503997D02*
Y575997D01*
X1810476Y504000D02*
X1944334D01*
Y576000D01*
X1810476D02*
X1944334D01*
X1810476Y504000D02*
Y576000D01*
X1235994Y465476D02*
Y517405D01*
Y547405D02*
Y599334D01*
X1164000Y547405D02*
Y599334D01*
Y465476D02*
Y517405D01*
Y465476D02*
X1236000D01*
X1164000Y599334D02*
X1236000D01*
X2790000Y1050000D02*
X2860000D01*
Y980000D02*
Y1065000D01*
X2790000D02*
X2860000D01*
X2790000Y980000D02*
Y1065000D01*
X2860000Y870000D02*
Y940000D01*
X2790000Y870000D02*
X2860000D01*
X2790000D02*
Y940000D01*
Y600000D02*
X2860000D01*
Y530000D02*
Y615000D01*
X2790000D02*
X2860000D01*
X2790000Y530000D02*
Y615000D01*
X2860000Y420000D02*
Y490000D01*
X2790000Y420000D02*
X2860000D01*
X2790000D02*
Y490000D01*
X1963997Y1201929D02*
X2035997D01*
Y1068071D02*
Y1201929D01*
X1963997Y1068071D02*
X2035997D01*
X1963997D02*
Y1201929D01*
X2064000Y975673D02*
X2136000D01*
X2064000D02*
Y1109531D01*
X2136000D01*
Y975673D02*
Y1109531D01*
X2241929Y554003D02*
Y626003D01*
X2108071Y554003D02*
X2241929D01*
X2108071D02*
Y626003D01*
X2241929D01*
X606929Y1209003D02*
Y1281003D01*
X473071Y1209003D02*
X606929D01*
X473071D02*
Y1281003D01*
X606929D01*
X1773997Y1143071D02*
Y1276929D01*
Y1143071D02*
X1845997D01*
Y1276929D01*
X1773997D02*
X1845997D01*
X68071Y1203997D02*
X201929D01*
Y1275997D01*
X68071D02*
X201929D01*
X68071Y1203997D02*
Y1275997D01*
X1869003Y1116929D02*
X1941003D01*
X1869003Y983071D02*
X1941003D01*
X1869003D02*
Y1035000D01*
Y1065000D02*
Y1116929D01*
X1940997Y1065000D02*
Y1116929D01*
Y983071D02*
Y1035000D01*
X1923997Y718071D02*
X1995997D01*
X1923997Y851929D02*
X1995997D01*
Y800000D02*
Y851929D01*
Y718071D02*
Y770000D01*
X1924003Y718071D02*
Y770000D01*
Y800000D02*
Y851929D01*
X2108071Y454003D02*
Y526003D01*
X2241929Y454003D02*
Y526003D01*
X2190000Y454003D02*
X2241929D01*
X2108071D02*
X2160000D01*
X2108071Y525997D02*
X2160000D01*
X2190000D02*
X2241929D01*
D16*
X2222937Y1517000D02*
G03*
X2222937Y1517000I-6968J0D01*
G01*
X653110Y1151260D02*
X916890D01*
D17*
X2395000Y1710000D02*
Y1715000D01*
Y1695000D02*
Y1700000D01*
X2380000D02*
X2410000D01*
X2380000Y1710000D02*
X2410000D01*
X2605000Y1300000D02*
Y1305000D01*
Y1285000D02*
Y1290000D01*
X2590000D02*
X2620000D01*
X2590000Y1300000D02*
X2620000D01*
X1610000Y415000D02*
X1640000D01*
X1610000Y405000D02*
X1640000D01*
X1625000Y400000D02*
Y405000D01*
Y415000D02*
Y420000D01*
X1199997Y522405D02*
Y527405D01*
Y537405D02*
Y542405D01*
X1184997Y537405D02*
X1214997D01*
X1184997Y527405D02*
X1214997D01*
X1890000Y1045000D02*
X1920000D01*
X1890000Y1055000D02*
X1920000D01*
X1905000D02*
Y1060000D01*
Y1040000D02*
Y1045000D01*
X1945000Y790000D02*
X1975000D01*
X1945000Y780000D02*
X1975000D01*
X1960000Y775000D02*
Y780000D01*
Y790000D02*
Y795000D01*
X2180000Y475000D02*
Y505000D01*
X2170000Y475000D02*
Y505000D01*
X2165000Y490000D02*
X2170000D01*
X2180000D02*
X2185000D01*
M02*
