G04*
G04 #@! TF.GenerationSoftware,Altium Limited,Altium Designer,24.0.1 (36)*
G04*
G04 Layer_Physical_Order=2*
G04 Layer_Color=16711680*
%FSLAX26Y26*%
%MOIN*%
G70*
G04*
G04 #@! TF.SameCoordinates,AB7DD749-DD38-46E5-A677-7F6656662C7D*
G04*
G04*
G04 #@! TF.FilePolarity,Positive*
G04*
G01*
G75*
%ADD84C,0.200000*%
%ADD85R,0.070866X0.070866*%
%ADD86C,0.070866*%
%ADD87C,0.062992*%
%ADD88R,0.062992X0.062992*%
%ADD89R,0.157480X0.078740*%
%ADD90R,0.078740X0.157480*%
%ADD91C,0.078740*%
%ADD92O,0.070822X0.043307*%
%ADD93R,0.066929X0.066929*%
%ADD94C,0.066929*%
%ADD95C,0.024000*%
G36*
X3150000Y0D02*
X0Y0D01*
X0Y1969673D01*
X3150000D01*
X3150000Y0D01*
D02*
G37*
%LPC*%
G36*
X3043500Y1963000D02*
X3026500D01*
X3009710Y1960341D01*
X2993542Y1955088D01*
X2978396Y1947370D01*
X2964643Y1937378D01*
X2952622Y1925357D01*
X2942630Y1911604D01*
X2934912Y1896458D01*
X2929659Y1880290D01*
X2927000Y1863500D01*
Y1846500D01*
X2929659Y1829710D01*
X2934912Y1813542D01*
X2942630Y1798396D01*
X2952622Y1784643D01*
X2964643Y1772622D01*
X2978396Y1762630D01*
X2993542Y1754912D01*
X3009710Y1749659D01*
X3026500Y1747000D01*
X3043500D01*
X3060290Y1749659D01*
X3076458Y1754912D01*
X3091604Y1762630D01*
X3105357Y1772622D01*
X3117378Y1784643D01*
X3127370Y1798396D01*
X3135088Y1813542D01*
X3140341Y1829710D01*
X3143000Y1846500D01*
Y1863500D01*
X3140341Y1880290D01*
X3135088Y1896458D01*
X3127370Y1911604D01*
X3117378Y1925357D01*
X3105357Y1937378D01*
X3091604Y1947370D01*
X3076458Y1955088D01*
X3060290Y1960341D01*
X3043500Y1963000D01*
D02*
G37*
G36*
X123500D02*
X106500D01*
X89710Y1960341D01*
X73542Y1955088D01*
X58396Y1947370D01*
X44643Y1937378D01*
X32622Y1925357D01*
X22630Y1911604D01*
X14912Y1896458D01*
X9659Y1880290D01*
X7000Y1863500D01*
Y1846500D01*
X9659Y1829710D01*
X14912Y1813542D01*
X22630Y1798396D01*
X32622Y1784643D01*
X44643Y1772622D01*
X58396Y1762630D01*
X73542Y1754912D01*
X89710Y1749659D01*
X106500Y1747000D01*
X123500D01*
X140290Y1749659D01*
X156458Y1754912D01*
X171604Y1762630D01*
X185357Y1772622D01*
X197378Y1784643D01*
X207370Y1798396D01*
X215088Y1813542D01*
X220341Y1829710D01*
X223000Y1846500D01*
Y1863500D01*
X220341Y1880290D01*
X215088Y1896458D01*
X207370Y1911604D01*
X197378Y1925357D01*
X185357Y1937378D01*
X171604Y1947370D01*
X156458Y1955088D01*
X140290Y1960341D01*
X123500Y1963000D01*
D02*
G37*
G36*
X2974496Y1709496D02*
X2895504D01*
Y1630504D01*
X2974496D01*
Y1709496D01*
D02*
G37*
G36*
X2940200Y1609496D02*
X2929800D01*
X2919755Y1606804D01*
X2910749Y1601605D01*
X2903395Y1594251D01*
X2898196Y1585245D01*
X2895504Y1575200D01*
Y1564800D01*
X2898196Y1554755D01*
X2903395Y1545749D01*
X2910749Y1538395D01*
X2919755Y1533196D01*
X2929800Y1530504D01*
X2940200D01*
X2950245Y1533196D01*
X2959251Y1538395D01*
X2966605Y1545749D01*
X2971804Y1554755D01*
X2974496Y1564800D01*
Y1575200D01*
X2971804Y1585245D01*
X2966605Y1594251D01*
X2959251Y1601605D01*
X2950245Y1606804D01*
X2940200Y1609496D01*
D02*
G37*
G36*
X596465Y1636740D02*
X501724D01*
Y1463260D01*
X596465D01*
Y1636740D01*
D02*
G37*
G36*
X2940200Y1509496D02*
X2929800D01*
X2919755Y1506804D01*
X2910749Y1501605D01*
X2903395Y1494251D01*
X2898196Y1485245D01*
X2895504Y1475200D01*
Y1464800D01*
X2898196Y1454755D01*
X2903395Y1445749D01*
X2910749Y1438395D01*
X2919755Y1433196D01*
X2929800Y1430504D01*
X2940200D01*
X2950245Y1433196D01*
X2959251Y1438395D01*
X2966605Y1445749D01*
X2971804Y1454755D01*
X2974496Y1464800D01*
Y1475200D01*
X2971804Y1485245D01*
X2966605Y1494251D01*
X2959251Y1501605D01*
X2950245Y1506804D01*
X2940200Y1509496D01*
D02*
G37*
G36*
X1570459Y1471465D02*
X1559541D01*
X1548995Y1468639D01*
X1539540Y1463180D01*
X1531820Y1455460D01*
X1526361Y1446005D01*
X1523535Y1435459D01*
Y1424541D01*
X1526361Y1413995D01*
X1531820Y1404540D01*
X1539540Y1396820D01*
X1548995Y1391361D01*
X1559541Y1388535D01*
X1570459D01*
X1581005Y1391361D01*
X1590460Y1396820D01*
X1598180Y1404540D01*
X1603639Y1413995D01*
X1606465Y1424541D01*
Y1435459D01*
X1603639Y1446005D01*
X1598180Y1455460D01*
X1590460Y1463180D01*
X1581005Y1468639D01*
X1570459Y1471465D01*
D02*
G37*
G36*
X1470459D02*
X1459541D01*
X1448995Y1468639D01*
X1439540Y1463180D01*
X1431820Y1455460D01*
X1426361Y1446005D01*
X1423535Y1435459D01*
Y1424541D01*
X1426361Y1413995D01*
X1431820Y1404540D01*
X1439540Y1396820D01*
X1448995Y1391361D01*
X1459541Y1388535D01*
X1470459D01*
X1481005Y1391361D01*
X1490460Y1396820D01*
X1498180Y1404540D01*
X1503639Y1413995D01*
X1506465Y1424541D01*
Y1435459D01*
X1503639Y1446005D01*
X1498180Y1455460D01*
X1490460Y1463180D01*
X1481005Y1468639D01*
X1470459Y1471465D01*
D02*
G37*
G36*
X2520000Y1458255D02*
X2250000D01*
X2244928Y1457246D01*
X2240628Y1454372D01*
X2237754Y1450072D01*
X2236745Y1445000D01*
Y1350000D01*
X2237754Y1344928D01*
X2240628Y1340628D01*
X2244928Y1337754D01*
X2250000Y1336745D01*
X2520000D01*
X2525072Y1337754D01*
X2529372Y1340628D01*
X2532246Y1344928D01*
X2533255Y1350000D01*
Y1445000D01*
X2532246Y1450072D01*
X2529372Y1454372D01*
X2525072Y1457246D01*
X2520000Y1458255D01*
D02*
G37*
G36*
X2940200Y1409496D02*
X2929800D01*
X2919755Y1406804D01*
X2910749Y1401605D01*
X2903395Y1394251D01*
X2898196Y1385245D01*
X2895504Y1375200D01*
Y1364800D01*
X2898196Y1354755D01*
X2903395Y1345749D01*
X2910749Y1338395D01*
X2919755Y1333196D01*
X2929800Y1330504D01*
X2940200D01*
X2950245Y1333196D01*
X2959251Y1338395D01*
X2966605Y1345749D01*
X2971804Y1354755D01*
X2974496Y1364800D01*
Y1375200D01*
X2971804Y1385245D01*
X2966605Y1394251D01*
X2959251Y1401605D01*
X2950245Y1406804D01*
X2940200Y1409496D01*
D02*
G37*
G36*
X2974496Y1254496D02*
X2895504D01*
Y1175504D01*
X2974496D01*
Y1254496D01*
D02*
G37*
G36*
X2940200Y1154496D02*
X2929800D01*
X2919755Y1151804D01*
X2910749Y1146605D01*
X2903395Y1139251D01*
X2898196Y1130245D01*
X2895504Y1120200D01*
Y1109800D01*
X2898196Y1099755D01*
X2903395Y1090749D01*
X2910749Y1083395D01*
X2919755Y1078196D01*
X2929800Y1075504D01*
X2940200D01*
X2950245Y1078196D01*
X2959251Y1083395D01*
X2966605Y1090749D01*
X2971804Y1099755D01*
X2974496Y1109800D01*
Y1120200D01*
X2971804Y1130245D01*
X2966605Y1139251D01*
X2959251Y1146605D01*
X2950245Y1151804D01*
X2940200Y1154496D01*
D02*
G37*
G36*
X848978Y1085000D02*
X841022D01*
X833671Y1081955D01*
X828045Y1076329D01*
X825000Y1068978D01*
Y1061022D01*
X828045Y1053671D01*
X833671Y1048045D01*
X841022Y1045000D01*
X848978D01*
X856329Y1048045D01*
X861955Y1053671D01*
X865000Y1061022D01*
Y1068978D01*
X861955Y1076329D01*
X856329Y1081955D01*
X848978Y1085000D01*
D02*
G37*
G36*
X788978D02*
X781022D01*
X773671Y1081955D01*
X768045Y1076329D01*
X765000Y1068978D01*
Y1061022D01*
X768045Y1053671D01*
X773671Y1048045D01*
X781022Y1045000D01*
X788978D01*
X796329Y1048045D01*
X801955Y1053671D01*
X805000Y1061022D01*
Y1068978D01*
X801955Y1076329D01*
X796329Y1081955D01*
X788978Y1085000D01*
D02*
G37*
G36*
X728978D02*
X721022D01*
X713671Y1081955D01*
X708045Y1076329D01*
X705000Y1068978D01*
Y1061022D01*
X708045Y1053671D01*
X713671Y1048045D01*
X721022Y1045000D01*
X728978D01*
X736329Y1048045D01*
X741955Y1053671D01*
X745000Y1061022D01*
Y1068978D01*
X741955Y1076329D01*
X736329Y1081955D01*
X728978Y1085000D01*
D02*
G37*
G36*
X848978Y1030000D02*
X841022D01*
X833671Y1026955D01*
X828045Y1021329D01*
X825000Y1013978D01*
Y1006022D01*
X828045Y998671D01*
X833671Y993045D01*
X841022Y990000D01*
X848978D01*
X856329Y993045D01*
X861955Y998671D01*
X865000Y1006022D01*
Y1013978D01*
X861955Y1021329D01*
X856329Y1026955D01*
X848978Y1030000D01*
D02*
G37*
G36*
X728978D02*
X721022D01*
X713671Y1026955D01*
X708045Y1021329D01*
X705000Y1013978D01*
Y1006022D01*
X708045Y998671D01*
X713671Y993045D01*
X721022Y990000D01*
X728978D01*
X736329Y993045D01*
X741955Y998671D01*
X745000Y1006022D01*
Y1013978D01*
X741955Y1021329D01*
X736329Y1026955D01*
X728978Y1030000D01*
D02*
G37*
G36*
X788978Y1025000D02*
X781022D01*
X773671Y1021955D01*
X768045Y1016329D01*
X765000Y1008978D01*
Y1001022D01*
X768045Y993671D01*
X773671Y988045D01*
X781022Y985000D01*
X788978D01*
X796329Y988045D01*
X801955Y993671D01*
X805000Y1001022D01*
Y1008978D01*
X801955Y1016329D01*
X796329Y1021955D01*
X788978Y1025000D01*
D02*
G37*
G36*
X2940200Y1054496D02*
X2929800D01*
X2919755Y1051804D01*
X2910749Y1046605D01*
X2903395Y1039251D01*
X2898196Y1030245D01*
X2895504Y1020200D01*
Y1009800D01*
X2898196Y999755D01*
X2903395Y990749D01*
X2910749Y983395D01*
X2919755Y978196D01*
X2929800Y975504D01*
X2940200D01*
X2950245Y978196D01*
X2959251Y983395D01*
X2966605Y990749D01*
X2971804Y999755D01*
X2974496Y1009800D01*
Y1020200D01*
X2971804Y1030245D01*
X2966605Y1039251D01*
X2959251Y1046605D01*
X2950245Y1051804D01*
X2940200Y1054496D01*
D02*
G37*
G36*
X476276Y1052370D02*
X463803D01*
X451755Y1049142D01*
X440953Y1042906D01*
X432134Y1034086D01*
X425897Y1023284D01*
X422669Y1011236D01*
Y998764D01*
X425897Y986716D01*
X432134Y975914D01*
X440953Y967095D01*
X451755Y960858D01*
X463803Y957630D01*
X476276D01*
X488324Y960858D01*
X499125Y967095D01*
X507945Y975914D01*
X514181Y986716D01*
X517409Y998764D01*
Y1011236D01*
X514181Y1023284D01*
X507945Y1034086D01*
X499125Y1042906D01*
X488324Y1049142D01*
X476276Y1052370D01*
D02*
G37*
G36*
X291236D02*
X278764D01*
X266716Y1049142D01*
X255914Y1042906D01*
X247095Y1034086D01*
X240858Y1023284D01*
X237630Y1011236D01*
Y998764D01*
X240858Y986716D01*
X247095Y975914D01*
X255914Y967095D01*
X266716Y960858D01*
X278764Y957630D01*
X291236D01*
X303284Y960858D01*
X314086Y967095D01*
X322906Y975914D01*
X329142Y986716D01*
X332370Y998764D01*
Y1011236D01*
X329142Y1023284D01*
X322906Y1034086D01*
X314086Y1042906D01*
X303284Y1049142D01*
X291236Y1052370D01*
D02*
G37*
G36*
X106197D02*
X93724D01*
X81676Y1049142D01*
X70875Y1042906D01*
X62055Y1034086D01*
X55819Y1023284D01*
X52590Y1011236D01*
Y998764D01*
X55819Y986716D01*
X62055Y975914D01*
X70875Y967095D01*
X81676Y960858D01*
X93724Y957630D01*
X106197D01*
X118245Y960858D01*
X129047Y967095D01*
X137866Y975914D01*
X144102Y986716D01*
X147331Y998764D01*
Y1011236D01*
X144102Y1023284D01*
X137866Y1034086D01*
X129047Y1042906D01*
X118245Y1049142D01*
X106197Y1052370D01*
D02*
G37*
G36*
X848978Y970000D02*
X841022D01*
X833671Y966955D01*
X828045Y961329D01*
X825000Y953978D01*
Y946022D01*
X828045Y938671D01*
X833671Y933045D01*
X841022Y930000D01*
X848978D01*
X856329Y933045D01*
X861955Y938671D01*
X865000Y946022D01*
Y953978D01*
X861955Y961329D01*
X856329Y966955D01*
X848978Y970000D01*
D02*
G37*
G36*
X788978D02*
X781022D01*
X773671Y966955D01*
X768045Y961329D01*
X765000Y953978D01*
Y946022D01*
X768045Y938671D01*
X773671Y933045D01*
X781022Y930000D01*
X788978D01*
X796329Y933045D01*
X801955Y938671D01*
X805000Y946022D01*
Y953978D01*
X801955Y961329D01*
X796329Y966955D01*
X788978Y970000D01*
D02*
G37*
G36*
X728978D02*
X721022D01*
X713671Y966955D01*
X708045Y961329D01*
X705000Y953978D01*
Y946022D01*
X708045Y938671D01*
X713671Y933045D01*
X721022Y930000D01*
X728978D01*
X736329Y933045D01*
X741955Y938671D01*
X745000Y946022D01*
Y953978D01*
X741955Y961329D01*
X736329Y966955D01*
X728978Y970000D01*
D02*
G37*
G36*
X2940200Y954496D02*
X2929800D01*
X2919755Y951804D01*
X2910749Y946605D01*
X2903395Y939251D01*
X2898196Y930245D01*
X2895504Y920200D01*
Y909800D01*
X2898196Y899755D01*
X2903395Y890749D01*
X2910749Y883395D01*
X2919755Y878196D01*
X2929800Y875504D01*
X2940200D01*
X2950245Y878196D01*
X2959251Y883395D01*
X2966605Y890749D01*
X2971804Y899755D01*
X2974496Y909800D01*
Y920200D01*
X2971804Y930245D01*
X2966605Y939251D01*
X2959251Y946605D01*
X2950245Y951804D01*
X2940200Y954496D01*
D02*
G37*
G36*
X848978Y915000D02*
X841022D01*
X833671Y911955D01*
X828045Y906329D01*
X825000Y898978D01*
Y891022D01*
X828045Y883671D01*
X833671Y878045D01*
X841022Y875000D01*
X848978D01*
X856329Y878045D01*
X861955Y883671D01*
X865000Y891022D01*
Y898978D01*
X861955Y906329D01*
X856329Y911955D01*
X848978Y915000D01*
D02*
G37*
G36*
X788978D02*
X781022D01*
X773671Y911955D01*
X768045Y906329D01*
X765000Y898978D01*
Y891022D01*
X768045Y883671D01*
X773671Y878045D01*
X781022Y875000D01*
X788978D01*
X796329Y878045D01*
X801955Y883671D01*
X805000Y891022D01*
Y898978D01*
X801955Y906329D01*
X796329Y911955D01*
X788978Y915000D01*
D02*
G37*
G36*
X728978D02*
X721022D01*
X713671Y911955D01*
X708045Y906329D01*
X705000Y898978D01*
Y891022D01*
X708045Y883671D01*
X713671Y878045D01*
X721022Y875000D01*
X728978D01*
X736329Y878045D01*
X741955Y883671D01*
X745000Y891022D01*
Y898978D01*
X741955Y906329D01*
X736329Y911955D01*
X728978Y915000D01*
D02*
G37*
G36*
X2974496Y809496D02*
X2895504D01*
Y730504D01*
X2974496D01*
Y809496D01*
D02*
G37*
G36*
X2940200Y709496D02*
X2929800D01*
X2919755Y706804D01*
X2910749Y701605D01*
X2903395Y694251D01*
X2898196Y685245D01*
X2895504Y675200D01*
Y664800D01*
X2898196Y654755D01*
X2903395Y645749D01*
X2910749Y638395D01*
X2919755Y633196D01*
X2929800Y630504D01*
X2940200D01*
X2950245Y633196D01*
X2959251Y638395D01*
X2966605Y645749D01*
X2971804Y654755D01*
X2974496Y664800D01*
Y675200D01*
X2971804Y685245D01*
X2966605Y694251D01*
X2959251Y701605D01*
X2950245Y706804D01*
X2940200Y709496D01*
D02*
G37*
G36*
X275603Y639984D02*
X248087D01*
X240346Y638965D01*
X233133Y635977D01*
X226938Y631224D01*
X222185Y625029D01*
X219197Y617816D01*
X218178Y610074D01*
X219197Y602333D01*
X222185Y595120D01*
X226938Y588925D01*
X233133Y584172D01*
X240346Y581184D01*
X248087Y580165D01*
X275603D01*
X283344Y581184D01*
X290557Y584172D01*
X296752Y588925D01*
X301505Y595120D01*
X304493Y602333D01*
X305512Y610074D01*
X304493Y617816D01*
X301505Y625029D01*
X296752Y631224D01*
X290557Y635977D01*
X283344Y638965D01*
X275603Y639984D01*
D02*
G37*
G36*
X126003D02*
X98487D01*
X90746Y638965D01*
X83533Y635977D01*
X77338Y631224D01*
X72585Y625029D01*
X69597Y617816D01*
X68578Y610074D01*
X69597Y602333D01*
X72585Y595120D01*
X77338Y588925D01*
X83533Y584172D01*
X90746Y581184D01*
X98487Y580165D01*
X126003D01*
X133744Y581184D01*
X140957Y584172D01*
X147152Y588925D01*
X151905Y595120D01*
X154893Y602333D01*
X155912Y610074D01*
X154893Y617816D01*
X151905Y625029D01*
X147152Y631224D01*
X140957Y635977D01*
X133744Y638965D01*
X126003Y639984D01*
D02*
G37*
G36*
X2940200Y609496D02*
X2929800D01*
X2919755Y606804D01*
X2910749Y601605D01*
X2903395Y594251D01*
X2898196Y585245D01*
X2895504Y575200D01*
Y564800D01*
X2898196Y554755D01*
X2903395Y545749D01*
X2910749Y538395D01*
X2919755Y533196D01*
X2929800Y530504D01*
X2940200D01*
X2950245Y533196D01*
X2959251Y538395D01*
X2966605Y545749D01*
X2971804Y554755D01*
X2974496Y564800D01*
Y575200D01*
X2971804Y585245D01*
X2966605Y594251D01*
X2959251Y601605D01*
X2950245Y606804D01*
X2940200Y609496D01*
D02*
G37*
G36*
Y509496D02*
X2929800D01*
X2919755Y506804D01*
X2910749Y501605D01*
X2903395Y494251D01*
X2898196Y485245D01*
X2895504Y475200D01*
Y464800D01*
X2898196Y454755D01*
X2903395Y445749D01*
X2910749Y438395D01*
X2919755Y433196D01*
X2929800Y430504D01*
X2940200D01*
X2950245Y433196D01*
X2959251Y438395D01*
X2966605Y445749D01*
X2971804Y454755D01*
X2974496Y464800D01*
Y475200D01*
X2971804Y485245D01*
X2966605Y494251D01*
X2959251Y501605D01*
X2950245Y506804D01*
X2940200Y509496D01*
D02*
G37*
G36*
X1028433Y498433D02*
X941567D01*
Y411567D01*
X1028433D01*
Y498433D01*
D02*
G37*
G36*
X2233433Y377331D02*
X2146567D01*
Y290465D01*
X2233433D01*
Y377331D01*
D02*
G37*
G36*
X275603Y299824D02*
X248087D01*
X240346Y298805D01*
X233133Y295817D01*
X226938Y291064D01*
X222185Y284869D01*
X219197Y277656D01*
X218178Y269914D01*
X219197Y262173D01*
X222185Y254960D01*
X226938Y248765D01*
X233133Y244012D01*
X240346Y241024D01*
X248087Y240005D01*
X275603D01*
X283344Y241024D01*
X290557Y244012D01*
X296752Y248765D01*
X301505Y254960D01*
X304493Y262173D01*
X305512Y269914D01*
X304493Y277656D01*
X301505Y284869D01*
X296752Y291064D01*
X290557Y295817D01*
X283344Y298805D01*
X275603Y299824D01*
D02*
G37*
G36*
X126003D02*
X98487D01*
X90746Y298805D01*
X83533Y295817D01*
X77338Y291064D01*
X72585Y284869D01*
X69597Y277656D01*
X68578Y269914D01*
X69597Y262173D01*
X72585Y254960D01*
X77338Y248765D01*
X83533Y244012D01*
X90746Y241024D01*
X98487Y240005D01*
X126003D01*
X133744Y241024D01*
X140957Y244012D01*
X147152Y248765D01*
X151905Y254960D01*
X154893Y262173D01*
X155912Y269914D01*
X154893Y277656D01*
X151905Y284869D01*
X147152Y291064D01*
X140957Y295817D01*
X133744Y298805D01*
X126003Y299824D01*
D02*
G37*
G36*
X1970000Y303255D02*
X1700000D01*
X1694928Y302246D01*
X1690628Y299373D01*
X1687754Y295072D01*
X1686745Y290000D01*
Y195000D01*
X1687754Y189928D01*
X1690628Y185627D01*
X1694928Y182754D01*
X1700000Y181745D01*
X1970000D01*
X1975072Y182754D01*
X1979372Y185627D01*
X1982246Y189928D01*
X1983255Y195000D01*
Y290000D01*
X1982246Y295072D01*
X1979372Y299373D01*
X1975072Y302246D01*
X1970000Y303255D01*
D02*
G37*
G36*
X3043500Y223000D02*
X3026500D01*
X3009710Y220341D01*
X2993542Y215088D01*
X2978396Y207370D01*
X2964643Y197378D01*
X2952622Y185357D01*
X2942630Y171604D01*
X2934912Y156458D01*
X2929659Y140290D01*
X2927000Y123500D01*
Y106500D01*
X2929659Y89710D01*
X2934912Y73542D01*
X2942630Y58396D01*
X2952622Y44643D01*
X2964643Y32622D01*
X2978396Y22630D01*
X2993542Y14912D01*
X3009710Y9659D01*
X3026500Y7000D01*
X3043500D01*
X3060290Y9659D01*
X3076458Y14912D01*
X3091604Y22630D01*
X3105357Y32622D01*
X3117378Y44643D01*
X3127370Y58396D01*
X3135088Y73542D01*
X3140341Y89710D01*
X3143000Y106500D01*
Y123500D01*
X3140341Y140290D01*
X3135088Y156458D01*
X3127370Y171604D01*
X3117378Y185357D01*
X3105357Y197378D01*
X3091604Y207370D01*
X3076458Y215088D01*
X3060290Y220341D01*
X3043500Y223000D01*
D02*
G37*
G36*
X123500D02*
X106500D01*
X89710Y220341D01*
X73542Y215088D01*
X58396Y207370D01*
X44643Y197378D01*
X32622Y185357D01*
X22630Y171604D01*
X14912Y156458D01*
X9659Y140290D01*
X7000Y123500D01*
Y106500D01*
X9659Y89710D01*
X14912Y73542D01*
X22630Y58396D01*
X32622Y44643D01*
X44643Y32622D01*
X58396Y22630D01*
X73542Y14912D01*
X89710Y9659D01*
X106500Y7000D01*
X123500D01*
X140290Y9659D01*
X156458Y14912D01*
X171604Y22630D01*
X185357Y32622D01*
X197378Y44643D01*
X207370Y58396D01*
X215088Y73542D01*
X220341Y89710D01*
X223000Y106500D01*
Y123500D01*
X220341Y140290D01*
X215088Y156458D01*
X207370Y171604D01*
X197378Y185357D01*
X185357Y197378D01*
X171604Y207370D01*
X156458Y215088D01*
X140290Y220341D01*
X123500Y223000D01*
D02*
G37*
%LPD*%
D84*
X3035000Y115000D02*
D03*
Y1855000D02*
D03*
X115000Y115000D02*
D03*
Y1855000D02*
D03*
D85*
X2190000Y333898D02*
D03*
X985000Y455000D02*
D03*
D86*
X2190000Y196102D02*
D03*
X985000Y317205D02*
D03*
D87*
X2935000Y1370000D02*
D03*
X3035000D02*
D03*
Y1470000D02*
D03*
X2935000D02*
D03*
X3035000Y1570000D02*
D03*
X2935000D02*
D03*
X3035000Y1670000D02*
D03*
X2935000Y915000D02*
D03*
X3035000D02*
D03*
Y1015000D02*
D03*
X2935000D02*
D03*
X3035000Y1115000D02*
D03*
X2935000D02*
D03*
X3035000Y1215000D02*
D03*
X2935000Y470000D02*
D03*
X3035000D02*
D03*
Y570000D02*
D03*
X2935000D02*
D03*
X3035000Y670000D02*
D03*
X2935000D02*
D03*
X3035000Y770000D02*
D03*
D88*
X2935000Y1670000D02*
D03*
Y1215000D02*
D03*
Y770000D02*
D03*
D89*
X442795Y1364961D02*
D03*
D90*
X305000Y1550000D02*
D03*
X549095D02*
D03*
D91*
X470039Y1005000D02*
D03*
X99961D02*
D03*
X285000D02*
D03*
D92*
X112245Y610074D02*
D03*
Y269914D02*
D03*
X261845Y610074D02*
D03*
Y269914D02*
D03*
D93*
X1665000Y1430000D02*
D03*
D94*
X1565000D02*
D03*
X1465000D02*
D03*
D95*
X725000Y895000D02*
D03*
X845000D02*
D03*
X785000D02*
D03*
X30000Y1685000D02*
D03*
Y1335000D02*
D03*
Y1385000D02*
D03*
Y1635000D02*
D03*
Y1485000D02*
D03*
Y1535000D02*
D03*
Y1585000D02*
D03*
Y1435000D02*
D03*
Y1735000D02*
D03*
Y985000D02*
D03*
Y1035000D02*
D03*
Y1085000D02*
D03*
Y1135000D02*
D03*
Y1185000D02*
D03*
Y1235000D02*
D03*
Y1285000D02*
D03*
Y285000D02*
D03*
Y685000D02*
D03*
Y735000D02*
D03*
Y485000D02*
D03*
Y335000D02*
D03*
Y535000D02*
D03*
Y635000D02*
D03*
Y435000D02*
D03*
Y835000D02*
D03*
Y885000D02*
D03*
Y935000D02*
D03*
Y585000D02*
D03*
Y385000D02*
D03*
Y785000D02*
D03*
Y235000D02*
D03*
X95000Y1180000D02*
D03*
X3125000Y1740000D02*
D03*
Y590000D02*
D03*
Y240000D02*
D03*
Y390000D02*
D03*
Y690000D02*
D03*
Y740000D02*
D03*
Y990000D02*
D03*
Y490000D02*
D03*
Y290000D02*
D03*
Y340000D02*
D03*
Y540000D02*
D03*
Y640000D02*
D03*
Y440000D02*
D03*
Y790000D02*
D03*
Y840000D02*
D03*
Y890000D02*
D03*
Y940000D02*
D03*
Y1040000D02*
D03*
Y1090000D02*
D03*
Y1140000D02*
D03*
Y1190000D02*
D03*
Y1240000D02*
D03*
Y1290000D02*
D03*
Y1340000D02*
D03*
Y1390000D02*
D03*
Y1640000D02*
D03*
Y1690000D02*
D03*
Y1490000D02*
D03*
Y1540000D02*
D03*
Y1590000D02*
D03*
Y1440000D02*
D03*
X2295000Y1865000D02*
D03*
X235000Y25000D02*
D03*
X2605000Y1945000D02*
D03*
X2755000D02*
D03*
X2705000D02*
D03*
X2655000D02*
D03*
X2855000D02*
D03*
X2805000D02*
D03*
X2905000D02*
D03*
X2205000D02*
D03*
X2355000D02*
D03*
X2305000D02*
D03*
X2255000D02*
D03*
X2455000D02*
D03*
X2405000D02*
D03*
X2505000D02*
D03*
X2555000D02*
D03*
X1805000D02*
D03*
X1755000D02*
D03*
X1955000D02*
D03*
X1905000D02*
D03*
X1855000D02*
D03*
X2055000D02*
D03*
X2005000D02*
D03*
X2105000D02*
D03*
X2155000D02*
D03*
X1405000D02*
D03*
X1555000D02*
D03*
X1505000D02*
D03*
X1455000D02*
D03*
X1655000D02*
D03*
X1605000D02*
D03*
X1705000D02*
D03*
X1005000D02*
D03*
X955000D02*
D03*
X1155000D02*
D03*
X1105000D02*
D03*
X1055000D02*
D03*
X1255000D02*
D03*
X1205000D02*
D03*
X1305000D02*
D03*
X605000D02*
D03*
X555000D02*
D03*
X755000D02*
D03*
X655000D02*
D03*
X855000D02*
D03*
X805000D02*
D03*
X905000D02*
D03*
X355000D02*
D03*
X305000D02*
D03*
X255000D02*
D03*
X455000D02*
D03*
X405000D02*
D03*
X505000D02*
D03*
X1355000D02*
D03*
X705000D02*
D03*
X685000Y25000D02*
D03*
X1335000D02*
D03*
X485000D02*
D03*
X385000D02*
D03*
X435000D02*
D03*
X285000D02*
D03*
X335000D02*
D03*
X885000D02*
D03*
X785000D02*
D03*
X835000D02*
D03*
X635000D02*
D03*
X735000D02*
D03*
X535000D02*
D03*
X585000D02*
D03*
X1285000D02*
D03*
X1185000D02*
D03*
X1235000D02*
D03*
X1035000D02*
D03*
X1085000D02*
D03*
X1135000D02*
D03*
X935000D02*
D03*
X985000D02*
D03*
X1685000D02*
D03*
X1585000D02*
D03*
X1635000D02*
D03*
X1435000D02*
D03*
X1485000D02*
D03*
X1535000D02*
D03*
X1385000D02*
D03*
X2085000D02*
D03*
X1985000D02*
D03*
X2035000D02*
D03*
X1835000D02*
D03*
X1885000D02*
D03*
X1935000D02*
D03*
X1735000D02*
D03*
X1785000D02*
D03*
X2485000D02*
D03*
X2385000D02*
D03*
X2435000D02*
D03*
X2235000D02*
D03*
X2285000D02*
D03*
X2335000D02*
D03*
X2135000D02*
D03*
X2185000D02*
D03*
X2885000D02*
D03*
X2785000D02*
D03*
X2835000D02*
D03*
X2635000D02*
D03*
X2685000D02*
D03*
X2735000D02*
D03*
X2535000D02*
D03*
X2585000D02*
D03*
X2825000Y1090000D02*
D03*
X2395000Y1800000D02*
D03*
X2620000Y1835000D02*
D03*
X1250000Y315000D02*
D03*
X2605000Y1385000D02*
D03*
X2700000Y1465000D02*
D03*
X1615000Y540000D02*
D03*
X725000Y1065000D02*
D03*
X785000D02*
D03*
X845000D02*
D03*
X785000Y1005000D02*
D03*
X1405000Y520000D02*
D03*
X1450000D02*
D03*
X1405000Y475000D02*
D03*
X1450000D02*
D03*
X1405000Y565000D02*
D03*
X1450000D02*
D03*
X1260000Y545000D02*
D03*
X322168Y331750D02*
D03*
X425000Y821929D02*
D03*
X550000Y811929D02*
D03*
X1510000Y1035000D02*
D03*
X2825000Y640000D02*
D03*
X2265000Y490000D02*
D03*
X2820000Y1365000D02*
D03*
X1805000Y885000D02*
D03*
X1810000Y1300000D02*
D03*
X1200000Y625000D02*
D03*
X325000Y550000D02*
D03*
X1905000Y955000D02*
D03*
X725000Y1010000D02*
D03*
X845000D02*
D03*
Y950000D02*
D03*
X785000D02*
D03*
X725000D02*
D03*
X1700000Y1035000D02*
D03*
X1128333Y910000D02*
D03*
X1191667D02*
D03*
X1255000D02*
D03*
X1065000D02*
D03*
X1128333Y993333D02*
D03*
X1191667D02*
D03*
X1255000D02*
D03*
X1065000D02*
D03*
X1128333Y1076667D02*
D03*
X1191667D02*
D03*
X1255000D02*
D03*
X1065000D02*
D03*
Y1160000D02*
D03*
X1255000D02*
D03*
X1191667D02*
D03*
X1128333D02*
D03*
M02*
